<svg width="639" height="612" viewBox="0 0 639 612" fill="none" xmlns="http://www.w3.org/2000/svg">
<g opacity="0.5">
<path opacity="0.5" d="M644 12.1974C615.377 -11.0677 539.605 -17.0293 465.501 145.244C372.871 348.087 132.168 335 50.356 406.977C-15.0936 464.558 -41.3726 567.651 -46.3309 612" stroke="#CFDDEE"/>
<path opacity="0.5" d="M644 244.515C621.498 230.261 561.931 226.609 503.675 326.03C430.855 450.307 241.629 442.289 177.313 486.387C125.861 521.665 105.202 584.828 101.304 612" stroke="#CFDDEE"/>
<path opacity="0.5" d="M644 426.145C627.393 418.937 583.431 417.09 540.436 467.372C486.692 530.223 347.036 526.169 299.569 548.471C261.596 566.313 246.348 598.257 243.471 612" stroke="#CFDDEE"/>
<path opacity="0.5" d="M644 138.916C618.551 120.566 551.182 115.864 485.295 243.854C402.936 403.843 188.926 393.522 116.186 450.292C57.9939 495.707 34.6291 577.021 30.2206 612" stroke="#CFDDEE"/>
<path opacity="0.5" d="M644 320.546C623.992 309.242 571.027 306.345 519.227 385.197C454.478 483.761 286.224 477.401 229.037 512.376C183.287 540.355 164.918 590.449 161.452 612" stroke="#CFDDEE"/>
<path opacity="0.5" d="M644 519.073C631.53 515.469 598.521 514.544 566.238 539.686C525.885 571.112 421.024 569.085 385.383 580.236C356.871 589.157 345.422 605.129 343.262 612" stroke="#CFDDEE"/>
</g>
</svg>
