<svg width="1440" height="1239" viewBox="0 0 1440 1239" fill="none" xmlns="http://www.w3.org/2000/svg">
<path d="M24.8282 1284.17C58.7082 1317.18 101.966 1326.18 142.501 1327.68C223.873 1330.68 224.175 1190.78 283.163 1176.52C335.193 1163.77 368.468 1142.02 393.575 1080.88C435.622 977.737 515.18 1022.37 566.605 1079.76C645.86 1168.27 730.862 1291.3 849.139 1234.29C937.167 1191.9 990.406 1124.76 1022.77 1012.99C1036.69 965.735 1051.21 911.724 1056.35 861.465C1061.19 812.706 1046.37 740.317 1083.27 708.811C1160.71 642.423 1278.39 723.439 1362.18 684.431C1421.77 656.676 1444.46 618.794 1416.02 538.903C1377.3 430.133 1489.23 385.874 1552.45 361.12C1607.2 339.741 1696.74 367.121 1740 310.11" stroke="black" stroke-width="0.5" stroke-miterlimit="10"/>
<path d="M20.8958 1269.17C54.4732 1300.67 97.4281 1309.3 136.451 1310.05C181.523 1310.8 210.865 1256.42 229.62 1209.91C242.325 1178.4 256.24 1149.52 274.39 1146.89C330.353 1138.64 356.67 1115.01 384.803 1056.5C392.668 1039.62 401.743 1025.37 411.725 1016.37C462.243 970.611 516.692 1012.99 556.622 1053.88C598.972 1097.76 641.927 1159.27 690.63 1194.53C743.264 1232.41 791.059 1240.66 848.837 1218.91C884.229 1205.41 924.159 1181.4 948.964 1148.4C979.214 1107.89 1000.39 1056.88 1017.93 1003.62C1021.56 992.741 1024.59 981.113 1027.61 969.486C1039.41 922.977 1046.97 880.969 1049.09 831.835C1051.21 784.951 1040.02 733.566 1069.96 698.309C1071.17 697.184 1072.38 695.684 1073.59 694.559C1152.24 628.921 1270.82 714.062 1355.83 676.555C1417.84 649.55 1434.17 611.293 1406.34 531.028C1386.08 472.892 1413.3 434.259 1449.3 406.504C1478.64 384 1516.45 368.247 1551.24 355.119C1605.09 334.865 1694.02 358.87 1736.98 305.235" stroke="black" stroke-width="0.5" stroke-miterlimit="10"/>
<path d="M17.2657 1253.42C50.5407 1283.42 92.8906 1290.17 130.401 1289.05C175.775 1287.55 203.303 1226.79 221.755 1179.53C234.46 1146.89 248.375 1118.76 266.223 1116.14C319.765 1107.89 346.688 1087.26 376.938 1032.87C385.408 1017.87 394.785 1005.87 405.07 998.367C457.1 959.734 504.592 989.365 546.64 1029.12C592.015 1071.88 637.087 1130.77 685.185 1168.65C737.214 1209.16 788.942 1224.16 848.232 1203.16C882.414 1191.15 920.831 1167.15 944.729 1133.77C973.769 1093.26 995.549 1045.63 1013.09 994.241C1016.72 983.739 1019.75 972.112 1022.77 960.109C1035.48 910.975 1040.02 870.842 1040.32 819.458C1040.62 772.199 1029.43 719.689 1060.28 684.432C1061.49 683.307 1062.7 681.806 1063.91 680.681C1143.77 616.169 1263.87 705.061 1349.17 669.054C1412.7 642.049 1422.38 603.791 1396.36 523.901C1377 463.515 1410.28 427.133 1446.88 400.878C1477.13 379.124 1514.64 363.746 1549.43 350.243C1602.97 329.989 1690.39 352.869 1733.35 301.484" stroke="black" stroke-width="0.5" stroke-miterlimit="10"/>
<path d="M13.6357 1237.66C45.0957 1263.92 88.6556 1271.79 124.351 1266.54C171.238 1259.79 195.438 1197.15 214.193 1149.89C226.898 1117.26 240.813 1090.26 258.66 1087.63C305.548 1080.51 341.848 1060.25 370.283 1012.99C378.148 999.866 389.34 990.489 400.23 983.363C451.957 948.856 495.215 970.235 538.472 1008.49C585.057 1050.13 631.642 1105.26 679.739 1143.52C732.979 1185.9 787.732 1207.66 848.232 1188.15C880.902 1177.65 915.991 1152.89 940.494 1119.89C969.534 1080.51 992.524 1035.12 1008.86 985.988C1012.49 975.111 1015.51 963.859 1018.84 952.232C1033.06 900.097 1033.66 862.214 1031.85 807.829C1030.34 760.195 1019.75 706.935 1051.81 671.678C1053.02 670.553 1054.23 669.053 1055.75 667.927C1137.12 604.915 1258.42 696.808 1343.42 661.926C1407.55 635.671 1410.88 596.289 1387.59 517.149C1369.44 454.887 1408.76 420.755 1445.97 396.001C1477.13 375.372 1514.03 359.619 1549.12 346.116C1602.06 325.862 1687.97 347.992 1731.23 298.482" stroke="black" stroke-width="0.5" stroke-miterlimit="10"/>
<path d="M9.70326 1221.53C41.1632 1245.16 83.8156 1249.66 117.696 1242.16C163.675 1232.04 186.968 1167.15 206.328 1119.51C219.335 1087.26 233.25 1062.13 250.795 1059.5C296.17 1052.75 331.865 1035.5 363.628 995.365C372.098 984.488 384.198 975.486 395.693 968.36C447.117 936.854 488.257 951.107 531.212 988.614C576.89 1028.75 624.987 1079.76 672.48 1117.64C727.534 1161.15 788.337 1191.9 846.114 1172.02C876.062 1161.9 910.849 1137.52 934.747 1105.64C962.576 1068.5 987.684 1024.62 1003.72 976.612C1007.35 966.11 1010.67 954.857 1014 942.855C1029.13 889.595 1027.31 850.588 1021.87 794.702C1017.63 750.443 1010.07 690.057 1042.74 658.176C1043.95 657.051 1045.46 655.55 1046.67 654.425C1129.25 592.914 1251.77 687.807 1336.47 653.675C1400.9 628.17 1398.18 587.287 1377.91 508.898C1361.57 445.51 1406.95 412.879 1444.46 389.25C1476.22 369.371 1512.82 353.618 1547.91 339.74C1600.25 319.111 1684.95 340.866 1727.9 293.231" stroke="black" stroke-width="0.5" stroke-miterlimit="10"/>
<path d="M6.07324 1205.78C37.2307 1226.41 79.2781 1226.79 111.343 1217.03C156.415 1203.16 178.8 1137.89 198.765 1090.63C212.075 1059.5 226.293 1037 243.838 1034.37C287.7 1028 324.303 1015.24 358.788 979.988C368.77 969.861 380.568 961.61 392.668 954.858C443.185 925.603 483.115 933.854 525.767 970.236C570.537 1008.49 618.03 1056.13 665.219 1092.88C721.787 1136.77 785.312 1173.9 843.392 1155.9C872.432 1146.89 904.799 1123.27 929.906 1093.26C959.249 1058 983.449 1015.62 999.784 968.736C1003.41 958.234 1006.74 946.607 1010.07 934.98C1034.87 853.964 971.046 704.686 1034.87 646.55C1036.08 645.424 1037.6 643.924 1039.11 642.799C1123.2 581.662 1242.99 681.056 1329.81 646.55C1395.76 620.295 1386.38 579.787 1369.44 502.522C1355.52 438.385 1406.95 406.879 1444.46 385.125C1476.83 365.996 1512.82 350.243 1547.91 335.99C1599.64 315.361 1682.52 336.365 1725.78 290.232" stroke="black" stroke-width="0.5" stroke-miterlimit="10"/>
<path d="M2.14078 1190.03C33.2982 1207.28 74.4381 1203.53 104.688 1191.15C148.248 1173.52 169.725 1109.01 191.203 1062.5C204.815 1033.25 219.638 1013.37 236.88 1011.12C279.23 1005.87 319.463 996.491 354.553 965.36C365.14 955.983 377.845 948.482 389.945 941.731C439.252 913.225 479.485 918.476 521.23 951.483C564.487 985.989 610.467 1032.87 656.75 1068.13C708.779 1107.51 779.867 1158.9 838.249 1137.89C867.592 1127.39 899.657 1108.26 924.462 1080.51C954.409 1047.13 978.911 1005.87 995.246 959.734C998.876 949.232 1002.2 937.605 1005.83 925.978C1032.76 843.837 955.014 695.309 1027.31 634.547C1028.82 633.422 1030.34 631.922 1031.55 631.172C1117.46 571.91 1232.41 659.677 1322.25 639.048C1391.52 622.92 1370.65 554.657 1360.36 495.396C1349.17 431.259 1406.04 400.878 1443.55 379.874C1476.22 361.495 1511.92 345.367 1546.7 331.114C1597.83 310.11 1679.2 330.364 1722.46 286.481" stroke="black" stroke-width="0.5" stroke-miterlimit="10"/>
<path d="M-1.48924 1174.28C32.0882 1187.4 68.3881 1178.4 98.3356 1164.9C139.173 1146.89 160.953 1081.26 184.548 1035.87C198.463 1008.87 213.89 992.74 231.133 990.865C273.785 986.364 314.623 980.363 351.528 951.858C362.418 943.231 375.728 936.105 388.13 928.978C436.227 901.598 476.46 901.598 517.902 933.104C559.647 964.985 604.115 1010.74 648.582 1044.5C700.612 1083.88 771.699 1136.77 831.897 1119.14C861.542 1110.51 894.212 1094.76 919.621 1068.13C950.174 1036.25 974.979 995.741 991.616 950.732C995.549 940.23 998.876 928.603 1002.51 916.976C1029.13 832.96 942.611 683.682 1021.26 623.295C1022.77 622.17 1024.29 621.045 1025.8 619.919C1113.22 562.909 1226.05 649.55 1315.9 631.172C1385.47 616.919 1360.36 544.155 1353.41 487.894C1345.54 424.507 1407.25 394.877 1444.76 374.623C1477.43 356.994 1512.82 340.491 1547.31 326.239C1598.13 304.859 1677.38 324.738 1720.94 282.73" stroke="black" stroke-width="0.5" stroke-miterlimit="10"/>
<path d="M-5.11909 1159.27C28.4583 1168.65 63.5483 1155.15 91.9832 1139.77C131.308 1118.39 151.273 1055.75 177.893 1012.62C192.413 988.614 207.84 976.987 225.385 975.486C268.038 972.111 310.69 966.86 348.503 940.23C359.998 931.978 373.308 924.477 386.013 917.726C434.413 892.971 471.317 884.344 514.575 915.85C555.11 945.106 598.065 990.114 640.717 1022.37C693.655 1062.5 762.927 1113.89 823.729 1101.51C853.979 1095.51 887.254 1082.76 913.269 1056.88C944.427 1026.12 969.534 986.739 986.474 941.73C990.407 931.228 994.641 919.601 997.666 907.599C1018.84 826.583 931.117 670.553 1014.3 612.417C1015.82 611.292 1017.63 610.167 1019.14 609.042C1107.78 555.031 1218.49 639.798 1307.73 623.294C1376.7 610.542 1348.87 533.652 1345.24 479.642C1341 417.38 1406.34 388.875 1444.46 368.996C1477.43 351.743 1511.92 335.24 1546.1 320.612C1596.31 298.858 1674.06 318.361 1717.31 278.229" stroke="black" stroke-width="0.5" stroke-miterlimit="10"/>
<path d="M-9.05173 1144.27C24.5257 1149.14 57.8006 1132.27 85.0256 1115.01C123.141 1090.63 140.685 1031.75 170.633 991.989C186.06 971.735 201.488 964.234 219.335 962.734C262.593 959.358 306.758 954.857 345.175 928.977C356.973 921.101 370.283 913.599 383.29 906.473C430.48 881.343 468.595 868.966 511.247 897.846C550.572 924.476 592.317 969.11 633.457 1000.62C690.327 1044.12 754.759 1088.01 815.562 1084.63C844.904 1083.13 879.994 1071.13 907.219 1045.62C938.679 1015.99 964.694 977.361 981.634 932.728C985.566 922.226 990.406 910.599 992.221 898.221C1004.93 815.706 920.832 658.176 1008.56 602.665C1010.07 601.54 1011.88 600.415 1013.7 599.665C1103.54 550.53 1210.93 630.795 1299.86 616.168C1368.23 604.916 1337.98 523.525 1337.98 472.515C1337.98 413.629 1405.74 383.998 1444.76 364.12C1477.73 347.617 1511.61 330.738 1545.49 315.735C1595.41 293.606 1671.03 313.11 1714.59 274.103" stroke="black" stroke-width="0.5" stroke-miterlimit="10"/>
<path d="M-12.3792 1130.39C20.8958 1131.14 52.6582 1111.26 78.9757 1092.13C114.973 1065.88 131.006 1008.87 164.886 976.237C180.615 960.859 196.648 954.858 214.798 953.732C258.66 950.357 304.035 945.481 343.36 919.976C355.46 912.099 369.073 904.223 382.08 897.097C428.362 870.842 467.082 855.089 509.735 881.719C548.152 905.723 588.99 949.606 628.315 980.737C684.58 1024.62 747.499 1068.5 808.302 1069.25C838.552 1069.63 873.642 1060.63 902.077 1035.5C934.142 1006.62 960.761 968.735 978.004 924.477C981.936 913.975 985.566 901.972 986.474 888.845C991.919 806.329 911.152 645.424 1004.62 595.164C1006.44 594.414 1008.25 593.289 1010.07 592.163C1101.42 547.53 1204.58 622.544 1293.21 609.792C1360.97 600.04 1329.51 514.524 1332.53 465.389C1336.16 407.628 1406.65 379.123 1445.97 359.619C1478.64 343.491 1512.22 326.613 1545.49 311.235C1597.22 287.23 1665.89 308.234 1712.47 270.727" stroke="black" stroke-width="0.5" stroke-miterlimit="10"/>
<path d="M-16.0092 1116.89C16.6608 1113.14 47.2132 1091.01 72.9256 1070.38C106.201 1043.37 124.351 989.364 159.138 963.484C174.868 951.857 191.808 947.731 210.26 946.231C254.728 942.48 301.01 936.479 340.94 910.974C353.343 903.098 366.653 894.846 379.66 886.97C418.683 863.34 464.965 834.46 507.315 864.09C546.942 891.846 585.057 928.978 623.172 959.359C678.53 1003.99 739.937 1047.88 800.739 1052.75C831.594 1055.38 867.289 1049 896.329 1023.87C928.696 995.74 957.736 958.608 973.466 913.975C977.096 903.473 978.609 890.345 978.609 877.218C978.306 795.077 902.682 631.921 1000.69 587.288C1002.51 586.538 1004.32 585.412 1006.14 584.662C1098.1 544.905 1197.62 613.918 1285.34 602.291C1351.89 593.664 1319.83 503.647 1326.48 457.138C1334.35 401.252 1405.44 373.872 1446.58 353.618C1479.25 337.49 1511.92 320.987 1544.59 305.234C1595.71 280.479 1662.56 301.483 1709.45 266.227" stroke="black" stroke-width="0.5" stroke-miterlimit="10"/>
<path d="M-19.6392 1104.14C12.4257 1096.63 41.7682 1072.63 66.8756 1050.88C97.428 1023.87 118.301 975.111 153.39 954.107C169.725 944.355 186.968 942.48 205.42 940.98C250.493 936.479 297.985 929.353 337.915 903.098C350.318 894.846 363.93 886.219 376.938 877.968C415.657 852.463 461.637 821.332 504.592 847.587C543.917 871.592 581.125 909.099 618.332 939.48C673.084 984.488 732.677 1029.12 792.874 1037.75C824.032 1042.25 860.332 1038.87 889.977 1013.74C922.041 986.739 955.316 949.607 966.811 904.598C969.534 894.096 969.836 880.218 968.929 866.716C964.391 781.95 893.607 622.544 997.364 582.412C999.179 581.661 1001.3 580.911 1003.11 580.161C1094.77 545.28 1191.27 607.541 1277.78 597.039C1343.12 589.163 1311.06 493.895 1321.04 450.762C1333.44 397.126 1403.62 371.246 1447.18 349.867C1479.25 333.739 1511.61 317.236 1543.68 301.108C1594.5 275.603 1659.53 296.607 1706.42 263.226" stroke="black" stroke-width="0.5" stroke-miterlimit="10"/>
<path d="M-22.9666 1091.76C8.19081 1080.88 36.6257 1055.75 61.1282 1032.87C89.2606 1006.62 113.461 963.484 148.248 947.356C165.188 939.48 182.43 938.73 200.883 936.479C246.258 931.228 294.96 922.601 335.193 894.846C347.595 886.22 361.208 877.218 373.913 867.841C412.33 840.461 457.402 807.08 501.567 829.959C540.892 850.213 577.797 887.72 614.097 918.101C667.942 963.484 725.72 1008.87 785.312 1020.87C816.469 1026.87 853.979 1026.5 883.927 1001.74C915.084 976.237 951.687 940.605 958.947 892.971C960.459 882.094 959.854 868.216 958.644 854.714C950.174 765.447 886.347 614.293 994.944 577.161C996.759 576.411 998.876 575.66 1000.99 574.91C1091.74 544.53 1185.82 600.04 1270.82 590.288C1334.95 583.162 1303.8 483.768 1317.11 442.885C1334.05 390.75 1403.32 366.746 1448.09 344.241C1479.55 328.488 1511.31 311.61 1542.77 295.482C1593.59 269.602 1656.21 290.606 1703.7 258.725" stroke="black" stroke-width="0.5" stroke-miterlimit="10"/>
<path d="M-26.2941 1080.51C3.95589 1066.63 30.8783 1041.12 55.6833 1017.49C82.9083 991.615 108.923 955.233 143.106 942.48C160.348 936.104 177.591 935.354 196.346 932.728C242.325 926.727 291.633 916.225 331.865 886.595C344.268 877.218 357.578 867.466 370.283 857.714C408.398 827.708 451.958 792.827 497.332 812.706C537.262 829.959 573.865 866.341 609.56 897.097C663.102 942.855 718.762 989.739 777.75 1004.37C808.302 1012.24 847.627 1014.87 877.574 990.114C908.127 964.985 946.242 932.353 949.267 881.719C949.872 870.467 948.964 856.589 947.149 842.711C935.654 748.193 880.599 606.791 993.129 572.66C995.247 571.91 997.364 571.16 999.179 570.784C1088.42 544.529 1180.38 593.664 1263.56 584.662C1326.79 577.911 1296.54 476.266 1313.78 436.134C1335.86 385.124 1402.71 362.62 1449 339.365C1479.85 323.612 1510.71 306.359 1541.56 290.231C1592.08 263.601 1652.88 284.605 1700.98 254.974" stroke="black" stroke-width="0.5" stroke-miterlimit="10"/>
<path d="M-29.319 1070C-0.279099 1053.88 25.7358 1028.37 50.5408 1005.87C77.7657 981.112 104.386 949.982 137.963 939.48C155.508 933.853 172.448 932.728 191.506 930.103C237.788 923.351 288.003 910.974 327.63 879.093C340.033 868.966 353.04 858.839 365.745 847.962C403.255 815.331 444.395 779.324 491.887 795.827C533.027 810.455 569.63 845.337 605.022 875.717C657.96 921.476 712.107 969.86 770.49 987.489C800.739 996.865 841.274 1002.49 871.222 978.487C902.379 953.732 937.772 922.601 938.074 870.466C938.074 859.214 936.562 845.337 934.747 831.459C920.832 731.315 876.667 601.165 991.919 570.034C994.037 569.659 996.154 568.909 998.272 568.159C1085.39 545.655 1175.84 588.413 1256.91 579.786C1318.92 573.035 1290.18 469.89 1311.36 430.508C1338.28 380.623 1402.71 359.244 1449.6 334.864C1479.85 319.111 1510.1 301.483 1540.35 285.355C1590.87 258.35 1649.86 279.354 1698.26 251.974" stroke="black" stroke-width="0.5" stroke-miterlimit="10"/>
<path d="M-32.6467 1060.25C-4.8167 1042.62 20.5932 1018.62 45.7007 996.866C72.9256 973.236 100.151 946.606 133.123 936.854C150.668 931.603 167.608 929.728 186.665 926.727C233.25 919.226 284.373 904.973 323.395 870.467C335.495 859.59 348.503 848.338 360.603 836.71C401.138 797.703 436.53 773.698 484.325 779.7C524.557 784.951 564.487 823.208 599.577 853.589C651.91 898.597 705.149 949.232 762.927 969.861C792.874 980.363 834.619 988.239 864.869 965.735C895.724 942.856 927.184 908.349 925.672 858.465C925.369 847.212 923.554 833.335 921.437 819.457C906.312 713.687 874.852 595.164 991.011 567.409C993.129 567.034 995.246 566.284 997.364 565.909C1082.06 546.78 1171.3 583.912 1250.25 575.286C1311.66 568.534 1283.53 464.264 1309.54 424.882C1341.91 376.123 1402.41 355.494 1450.21 330.364C1479.55 314.611 1509.19 296.983 1538.54 280.479C1588.75 252.724 1646.23 274.103 1695.23 248.598" stroke="black" stroke-width="0.5" stroke-miterlimit="10"/>
<path d="M-35.6716 1050.5C-9.0517 1032.5 15.7533 1009.24 41.1632 988.615C68.0857 966.86 96.8231 942.856 128.586 933.479C145.828 928.603 163.07 925.228 181.825 921.852C228.713 913.6 280.44 897.847 318.555 860.34C330.655 848.713 343.663 836.336 354.855 823.958C391.155 784.951 430.177 765.447 474.645 766.572C516.995 767.698 558.437 799.579 594.132 829.584C645.86 873.093 697.284 922.227 755.969 949.607C787.429 964.235 827.662 973.237 858.819 950.357C889.674 927.853 915.084 891.846 912.664 844.962C912.059 834.085 909.942 819.832 908.127 805.955C892.699 694.934 875.759 587.663 991.314 563.284C993.431 562.909 995.549 562.158 997.969 561.783C1080.25 545.28 1168.28 577.911 1244.81 569.285C1305.61 562.533 1277.78 457.513 1308.94 417.756C1346.45 370.122 1403.02 350.243 1451.42 323.613C1480.15 307.86 1508.59 289.857 1537.63 273.353C1588.15 244.848 1643.81 266.602 1693.42 243.348" stroke="black" stroke-width="0.5" stroke-miterlimit="10"/>
<path d="M-38.6966 1041.5C-12.9842 1023.12 11.5183 1000.99 36.6257 981.863C63.8507 961.234 92.5881 940.23 123.443 929.728C140.686 923.727 157.626 919.226 176.38 915.475C223.57 906.474 275.6 889.22 312.505 849.088C324.303 836.335 336.705 824.708 347.293 813.456C382.383 777.449 419.288 759.446 461.94 757.195C505.197 754.945 548.757 781.2 585.662 808.205C638.6 846.837 690.024 900.097 748.104 929.728C778.052 945.106 821.309 959.359 850.047 935.354C877.272 912.85 900.262 877.218 897.842 832.96C897.237 822.083 895.119 808.205 893.607 794.327C887.557 745.193 869.104 685.181 887.557 637.172C905.404 590.288 952.897 568.534 991.314 561.408C993.431 561.033 995.851 560.283 997.969 560.283C1076.32 547.905 1163.13 573.785 1238.76 565.909C1291.39 560.658 1284.74 446.261 1308.03 413.255C1340.4 367.496 1402.11 347.242 1451.42 319.487C1479.85 303.734 1507.08 284.98 1535.21 268.852C1585.73 239.972 1639.87 261.351 1690.39 241.097" stroke="black" stroke-width="0.5" stroke-miterlimit="10"/>
<path d="M-41.7216 1032.5C-16.9167 1013.74 6.67827 993.115 32.0882 975.487C59.9182 955.983 88.3531 937.229 118.301 924.852C135.543 917.726 151.878 910.599 170.633 906.849C218.428 897.097 268.945 877.218 305.85 837.835C316.74 826.208 328.84 816.081 339.125 806.329C370.585 775.574 407.793 752.694 448.327 750.819C493.097 748.568 535.75 766.947 573.865 790.201C628.617 823.958 684.277 880.593 740.239 907.974C766.254 920.726 812.537 942.105 837.947 918.851C861.844 897.097 885.137 863.34 883.019 820.582C882.414 810.08 880.599 796.202 879.389 782.7C874.549 733.566 860.029 675.805 882.414 630.046C904.194 585.787 953.199 565.909 991.919 559.157C994.036 558.782 996.456 558.407 998.574 558.032C1074.5 547.905 1160.11 570.409 1233.31 562.158C1260.84 559.157 1268.4 537.403 1276.57 510.773C1288.97 470.265 1282.62 440.635 1307.73 408.379C1342.21 363.745 1402.41 343.491 1451.42 314.611C1478.94 298.483 1505.26 279.729 1532.49 263.601C1583 233.595 1636.55 255.725 1687.67 238.096" stroke="black" stroke-width="0.5" stroke-miterlimit="10"/>
<path d="M-44.7466 1024.25C-44.7466 1024.25 -24.4792 1004.37 27.5507 969.485C54.7757 951.107 84.4206 933.479 113.158 917.726C130.098 908.724 146.736 897.847 164.885 894.096C212.075 884.344 260.173 864.465 298.59 828.083C309.48 817.957 320.673 808.955 330.05 799.953C360.3 771.448 394.785 748.568 433.505 744.818C477.67 740.317 519.717 753.819 558.437 773.698C614.702 802.954 671.572 855.464 727.534 884.344C751.734 896.722 798.319 921.476 821.612 899.722C843.694 879.093 868.197 848.712 866.987 806.704C866.684 796.577 865.172 782.7 864.264 769.572C856.702 649.549 886.952 571.16 992.524 555.407C994.641 555.031 997.061 554.656 999.179 554.281C1072.69 546.03 1157.08 566.284 1228.17 557.282C1255.7 553.906 1262.66 531.402 1271.13 504.772C1284.74 463.514 1280.81 434.258 1307.73 401.627C1343.73 358.494 1402.71 337.115 1450.81 307.859C1477.43 291.731 1503.14 271.853 1529.46 256.1C1579.37 226.094 1633.22 248.223 1684.94 233.22" stroke="black" stroke-width="0.5" stroke-miterlimit="10"/>
<path d="M-47.7716 1015.62C-47.7716 1015.62 -29.0167 995.365 22.7107 963.109C50.8432 945.481 79.5806 927.853 107.411 908.724C124.351 897.097 140.383 882.469 158.231 878.718C203.605 869.341 251.703 854.714 290.12 821.332C300.405 812.33 311.295 804.454 320.37 796.202C349.41 769.572 381.173 746.318 418.078 740.692C461.032 734.316 502.475 744.068 540.892 760.571C597.762 784.95 655.54 831.084 710.594 861.84C733.282 874.217 777.749 901.973 801.949 880.594C830.989 855.089 844.904 836.335 850.349 793.952C851.559 784.95 849.442 770.698 849.139 757.57C847.022 638.297 892.094 565.909 992.826 552.406C994.944 552.031 997.364 551.656 999.481 551.656C1070.87 544.905 1153.76 564.033 1223.03 553.906C1250.86 549.78 1256.61 526.526 1265.98 500.271C1280.5 458.263 1279.29 429.383 1308.03 396.376C1344.94 354.368 1402.41 331.864 1450.21 301.858C1475.92 285.73 1500.42 264.726 1526.74 249.348C1576.95 219.718 1630.19 241.097 1682.53 229.469" stroke="black" stroke-width="0.5" stroke-miterlimit="10"/>
<path d="M-50.7966 1007.37C-50.7966 1007.37 -33.2517 987.114 18.1733 956.358C46.6082 939.48 75.9506 919.601 101.361 896.722C117.998 881.719 133.728 868.592 151.575 865.216C197.253 856.589 241.418 847.588 281.65 816.082C291.935 808.205 302.523 800.704 310.69 792.827C339.73 765.447 368.77 745.943 402.65 736.566C440.765 726.064 484.325 735.441 522.137 748.944C578.705 769.198 636.18 810.08 690.932 839.711C712.712 851.338 757.179 879.844 780.472 860.34C801.647 842.712 831.594 818.332 833.409 780.825C834.014 771.448 833.712 758.321 834.317 745.568C839.157 628.546 897.539 560.283 993.129 548.656C995.246 548.281 997.666 547.906 999.784 547.906C1069.06 542.655 1150.43 561.783 1218.19 550.156C1246.32 545.655 1251.16 521.651 1260.84 495.02C1276.57 452.262 1277.78 423.382 1308.03 390.376C1345.54 349.118 1401.81 325.863 1448.39 295.482C1473.2 278.979 1497.09 257.225 1523.11 242.597C1573.93 213.717 1626.56 234.721 1679.2 226.094" stroke="black" stroke-width="0.5" stroke-miterlimit="10"/>
<path d="M-53.8216 999.116C-53.8216 999.116 -37.1841 978.112 13.6358 949.231C43.8857 931.978 69.9007 908.349 95.6131 882.469C111.646 865.965 127.678 857.714 145.526 855.088C190.295 848.712 233.855 841.961 273.483 813.08C283.465 805.954 293.448 798.828 301.313 791.326C329.143 765.071 356.065 744.067 388.13 733.19C423.825 721.188 467.082 728.689 503.382 739.191C559.042 755.319 615.307 790.951 669.455 818.706C690.629 829.584 734.794 858.089 758.087 839.71C779.867 822.457 812.537 805.579 817.377 767.322C818.587 758.32 818.889 745.568 820.402 733.565C834.014 619.544 900.867 554.656 993.734 544.154C995.851 543.779 998.271 543.404 1000.09 543.404C1067.85 539.278 1147.1 559.157 1213.65 546.405C1242.09 541.154 1246.02 516.024 1256.3 489.769C1272.94 446.261 1277.18 417.38 1308.33 384.374C1346.15 344.241 1401.5 320.237 1445.97 288.355C1469.87 271.477 1493.77 248.973 1519.48 234.72C1570.6 206.215 1623.24 226.844 1676.17 221.593" stroke="black" stroke-width="0.5" stroke-miterlimit="10"/>
<path d="M-56.8466 990.49C-56.8466 990.49 -40.8141 969.111 8.79577 940.606C38.7432 923.352 64.4557 892.221 88.9581 868.217C103.478 853.964 120.721 848.713 138.568 846.838C182.43 842.337 225.385 837.836 264.71 810.831C274.39 804.08 284.07 797.328 291.935 790.202C318.555 765.072 344.873 742.193 374.518 729.065C407.793 714.437 449.84 722.689 485.232 730.566C539.985 742.943 594.132 775.199 646.767 799.579C668.849 809.706 712.107 835.961 735.097 820.583C757.784 805.205 792.874 794.328 801.344 755.695C803.159 747.069 804.369 735.066 807.092 723.064C829.477 615.044 904.799 549.781 994.339 540.404C996.456 540.029 998.574 540.029 1000.69 539.654C1069.36 534.403 1143.17 558.783 1210.32 544.155C1239.06 537.779 1242.09 512.274 1252.67 485.269C1270.22 441.385 1277.78 411.755 1308.94 379.124C1346.75 339.741 1400.6 314.986 1443.25 281.98C1466.24 264.352 1490.74 241.847 1516.15 227.97C1567.58 200.215 1620.51 220.468 1673.75 218.968" stroke="black" stroke-width="0.5" stroke-miterlimit="10"/>
<path d="M-59.8716 981.863C-59.8716 981.863 -44.4441 960.484 3.95577 930.853C33.2982 912.85 56.5907 877.218 82.6056 856.214C97.4281 844.212 114.368 840.836 132.216 839.711C175.775 837.085 217.823 834.46 256.845 808.58C266.223 802.203 275.903 795.452 283.163 788.326C308.875 763.196 333.68 738.441 362.418 722.688C392.97 705.81 435.925 714.812 468.595 720.438C520.927 729.815 573.562 757.945 624.382 779.699C646.767 789.451 689.117 814.206 712.409 799.578C736.912 784.2 773.212 780.824 785.917 742.192C788.639 733.94 790.757 722.688 794.387 711.061C825.847 610.542 907.219 543.029 994.641 534.027C996.759 533.652 998.876 533.652 1000.99 533.277C1068.75 528.776 1140.45 556.532 1207 540.404C1234.83 533.652 1239.36 506.647 1249.35 479.642C1265.98 434.258 1278.69 404.628 1309.85 372.372C1347.36 333.739 1398.48 308.234 1440.22 273.728C1462.91 254.974 1487.72 233.22 1513.43 219.718C1564.85 192.712 1618.7 212.216 1671.94 214.467" stroke="black" stroke-width="0.5" stroke-miterlimit="10"/>
<path d="M-62.8966 972.861C-62.8966 972.861 -48.0741 952.982 -1.18673 919.976C27.8532 899.722 46.6082 864.09 75.9506 846.087C91.3781 836.71 107.713 834.085 125.258 833.71C168.213 832.959 210.26 832.209 248.678 807.079C258.055 801.078 267.433 794.327 274.693 786.826C299.8 760.946 323.698 733.565 351.528 715.187C380.265 696.433 422.312 704.685 453.167 710.686C502.475 720.063 552.992 742.942 601.997 762.446C624.987 771.448 667.034 794.702 689.722 780.824C716.342 764.321 752.642 770.322 770.792 730.565C774.422 722.688 777.447 712.186 782.287 701.309C822.822 608.667 907.219 537.403 993.734 529.151C995.851 528.776 997.969 528.776 999.784 528.776C1063.91 527.651 1136.51 559.157 1202.76 538.903C1232.1 529.902 1233.92 503.647 1245.11 474.766C1262.96 429.383 1277.78 399.002 1308.94 367.496C1346.15 329.614 1394.24 302.983 1435.08 267.352C1457.77 247.473 1482.88 226.469 1508.59 213.341C1560.32 187.086 1615.07 205.84 1668.01 212.216" stroke="black" stroke-width="0.5" stroke-miterlimit="10"/>
<path d="M-65.9216 963.485C-65.9216 963.485 -48.9816 943.981 -6.32921 907.224C17.8707 886.595 40.5582 850.588 69.5981 836.336C85.3281 828.459 101.361 826.959 118.603 827.709C160.953 828.834 203 829.959 241.418 804.83C250.493 798.828 259.87 792.077 267.13 783.826C292.54 755.695 314.623 724.564 343.058 704.685C370.888 685.182 410.213 691.933 441.067 698.309C487.35 707.686 535.447 727.94 581.73 744.818C605.325 753.445 645.557 774.824 668.85 761.321C697.587 744.818 734.492 755.695 757.179 718.188C761.717 710.687 765.952 700.935 772.002 690.433C822.519 605.667 905.404 530.277 993.129 521.651C995.246 521.276 997.364 521.276 999.179 521.276C1062.7 520.901 1134.09 557.658 1200.04 535.153C1229.08 525.026 1230.89 497.646 1242.69 468.766C1261.14 423.382 1278.39 392.251 1309.54 359.995C1346.15 322.488 1392.73 293.232 1431.45 257.975C1453.53 237.722 1480.46 214.467 1505.56 204.34C1557.9 183.336 1609.62 196.464 1665.89 207.716" stroke="black" stroke-width="0.5" stroke-miterlimit="10"/>
<path d="M-69.249 953.732C-69.249 953.732 -52.309 933.854 -11.7741 892.971C9.09834 871.967 34.8108 838.21 62.9433 827.333C78.9757 820.957 94.7057 820.207 111.948 821.332C153.996 823.958 196.346 827.333 234.46 801.828C243.838 795.452 252.913 788.701 260.173 780.074C285.885 749.694 307.968 714.437 336.705 691.182C364.233 669.053 400.835 675.429 431.993 682.931C475.25 693.058 520.02 712.936 563.58 727.939C587.477 736.191 625.592 755.32 649.792 742.567C680.95 726.064 717.855 740.692 744.777 706.56C750.222 699.809 755.667 690.432 763.229 680.68C822.822 604.166 902.379 524.276 991.616 514.149C993.431 513.774 995.549 513.774 997.364 513.774C1064.52 510.398 1128.95 558.782 1197.01 532.527C1224.84 521.65 1229.38 492.77 1239.97 463.514C1256.91 417.005 1278.99 385.124 1309.54 353.618C1345.24 316.486 1389.1 283.855 1427.52 249.348C1449.6 229.469 1476.83 205.84 1502.24 196.088C1554.87 176.209 1607.51 188.212 1663.47 203.965" stroke="black" stroke-width="0.5" stroke-miterlimit="10"/>
<path d="M-72.274 943.981C-72.274 943.981 -57.754 919.601 -17.2191 877.968C3.04835 857.34 29.3658 827.709 56.2883 818.707C72.0182 813.456 88.0507 812.706 105.293 814.581C147.038 818.707 189.993 824.333 227.805 798.078C237.183 791.702 246.258 784.201 253.82 774.824C279.533 742.568 300.405 701.31 333.378 678.806C363.628 658.177 395.39 658.177 425.943 665.303C464.965 674.68 507.012 698.309 548.152 712.187C572.655 720.438 608.047 737.692 633.155 725.689C666.732 709.186 703.335 727.19 734.19 696.434C740.542 690.058 747.197 681.806 756.272 672.429C820.402 604.541 900.867 517.9 989.499 507.023C991.314 506.648 993.129 506.648 995.246 506.648C1062.7 503.272 1126.23 559.908 1194.29 531.027C1222.12 519.4 1226.36 489.019 1237.55 459.389C1255.09 413.255 1278.69 379.874 1309.24 347.993C1344.03 311.236 1384.87 275.229 1422.98 241.472C1445.67 221.593 1472.59 197.964 1498.3 188.962C1551.24 169.834 1605.39 180.711 1660.75 201.715" stroke="black" stroke-width="0.5" stroke-miterlimit="10"/>
<path d="M-75.6016 933.479C-75.6016 933.479 -62.2916 902.723 -22.6642 863.341C-3.00174 843.462 23.6182 816.832 49.9357 808.955C65.6656 804.455 81.6981 803.329 98.9406 805.58C140.685 810.831 184.548 818.707 222.36 791.702C231.738 784.951 241.115 777.074 248.98 766.947C274.995 731.691 296.775 690.808 332.168 667.929C362.115 648.8 393.575 645.424 424.127 650.3C461.032 656.301 500.357 681.056 537.565 695.309C560.252 703.935 596.25 719.313 620.45 708.061C656.145 691.933 692.444 712.562 726.324 685.557C733.584 679.931 742.054 671.679 752.037 662.302C818.587 601.166 900.867 509.648 987.079 497.271C988.894 496.896 990.709 496.896 992.524 496.896C1060.28 493.52 1123.51 559.533 1192.17 527.652C1219.7 514.899 1223.94 483.018 1235.73 453.388C1253.88 407.254 1278.69 373.122 1308.94 340.491C1342.52 304.109 1380.93 263.977 1418.75 232.096C1442.04 212.592 1468.96 188.962 1494.67 180.336C1547.61 162.332 1603.57 172.459 1658.33 197.589" stroke="black" stroke-width="0.5" stroke-miterlimit="10"/>
<path d="M-78.929 922.226C-78.929 922.226 -69.5516 886.22 -28.4116 849.087C-5.11917 828.083 15.4508 806.329 43.2807 798.453C59.3132 793.952 75.0432 792.827 92.2856 795.077C134.333 801.078 178.8 810.83 216.613 783.075C226.293 775.949 236.275 767.697 243.838 756.07C268.34 719.688 294.053 679.18 330.353 657.801C360.603 640.173 393.878 633.796 423.22 637.547C457.1 642.048 494.307 662.302 529.7 676.93C559.042 688.932 587.477 700.934 609.862 690.432C645.255 673.929 685.79 692.308 719.669 674.304C727.534 670.178 736.912 660.802 748.104 651.8C815.864 596.289 899.354 500.271 983.147 486.768C984.962 486.393 986.777 486.393 988.289 486.018C1056.35 481.893 1120.48 558.782 1189.75 524.276C1216.98 510.773 1221.52 477.017 1233.31 447.386C1251.77 401.252 1277.78 365.995 1307.73 332.614C1340.4 296.232 1377 252.724 1413.91 221.968C1437.2 202.464 1464.73 179.21 1490.74 170.958C1543.98 153.705 1602.06 163.082 1655.3 193.088" stroke="black" stroke-width="0.5" stroke-miterlimit="10"/>
<path d="M-82.2564 910.974C-82.2564 910.974 -73.7865 871.217 -33.8565 835.585C-11.1691 815.331 9.09837 795.077 36.6258 786.826C52.6583 781.95 68.3883 780.074 85.6307 782.7C127.678 788.701 173.961 800.328 211.773 772.198C221.755 764.696 231.435 755.32 239.3 743.317C264.105 705.435 292.54 668.678 329.748 649.55C360.905 633.421 395.39 626.295 425.338 628.921C457.403 631.546 493.702 646.924 526.372 660.427C553.597 671.679 579.007 684.806 604.115 674.304C640.717 659.301 680.647 679.93 715.435 663.802C723.602 660.052 733.887 651.05 745.684 642.423C814.049 591.789 897.539 492.77 978.307 476.267C979.819 475.891 981.634 475.516 983.449 475.516C1052.42 469.515 1117.46 559.907 1187.33 521.65C1213.95 507.022 1219.1 471.766 1231.2 442.135C1250.25 396.001 1276.57 359.994 1306.22 325.863C1337.98 289.106 1372.46 243.347 1409.07 212.966C1432.36 193.838 1460.49 170.583 1486.51 162.707C1539.75 146.579 1600.25 155.58 1652.28 190.087" stroke="black" stroke-width="0.5" stroke-miterlimit="10"/>
<path d="M-85.5841 899.347C-85.5841 899.347 -78.0216 857.339 -39.6041 822.833C-17.8242 803.329 2.44327 783.825 30.2732 774.448C46.3057 768.822 62.0356 766.197 79.2781 768.447C121.023 774.073 168.818 787.201 206.328 758.695C216.31 751.194 225.99 742.192 233.855 730.94C260.173 693.808 290.423 658.926 328.84 641.673C361.208 627.045 396.903 620.669 428.665 622.169C459.52 623.67 494.61 634.172 525.767 645.799C551.48 655.551 574.47 669.053 601.695 658.551C638.297 644.299 678.227 666.803 712.712 652.55C721.484 649.175 732.374 640.173 744.474 631.921C790.152 600.79 834.619 564.783 879.087 529.902C908.127 507.022 938.981 471.766 973.466 464.264C974.979 463.889 976.794 463.514 978.609 463.514C1048.49 457.138 1114.73 559.157 1185.22 518.275C1211.23 502.897 1216.98 465.389 1229.38 435.759C1248.74 389.625 1275.36 352.493 1304.7 317.611C1335.86 280.479 1368.23 232.47 1404.53 202.464C1427.82 183.336 1456.56 160.832 1482.88 153.33C1536.42 137.952 1599.34 146.579 1649.86 185.586" stroke="black" stroke-width="0.5" stroke-miterlimit="10"/>
<path d="M-88.9115 886.969C-88.9115 886.969 -82.2565 843.461 -45.0491 809.33C-24.1766 790.201 -3.90913 770.697 23.9208 759.445C39.9533 753.069 56.2882 748.943 72.9257 750.443C113.763 754.569 162.163 769.947 199.975 743.692C210.26 736.566 219.94 728.689 228.41 717.812C256.24 681.805 288.608 646.549 327.63 633.046C362.72 620.669 396.903 614.293 432.597 615.793C462.847 617.293 497.03 623.669 527.582 633.046C552.085 640.548 573.562 654.425 601.392 643.548C636.18 630.046 677.925 653.3 711.199 641.673C719.972 638.672 731.467 630.046 744.172 622.169C790.757 592.913 836.434 557.657 879.994 521.275C907.219 498.395 935.049 460.513 968.324 453.012C969.836 452.637 971.651 452.262 973.466 452.262C1043.95 445.135 1112.31 559.157 1182.8 515.274C1208.21 499.521 1214.56 459.763 1227.26 430.132C1247.23 384.374 1273.55 346.116 1302.59 310.11C1333.14 272.227 1363.09 222.718 1399.69 193.087C1422.98 173.959 1452.63 151.829 1478.94 145.078C1532.79 130.825 1598.13 139.452 1647.44 182.585" stroke="black" stroke-width="0.5" stroke-miterlimit="10"/>
<path d="M-92.2391 874.592C-92.2391 874.592 -86.7941 830.334 -50.4942 795.827C-30.2267 776.324 -10.2617 756.445 17.5682 742.942C33.6007 735.066 49.6332 729.065 65.9681 730.94C106.503 735.441 154.298 752.694 193.018 729.065C203.605 722.688 213.588 715.187 222.36 705.06C253.215 668.303 285.885 640.173 325.815 624.045C359.695 610.542 399.625 606.041 435.925 609.417C466.78 612.042 500.055 615.043 530.607 622.169C554.505 627.42 574.167 640.548 602.602 629.296C635.272 616.168 678.529 639.798 710.292 630.046C719.367 627.42 731.164 619.169 744.172 611.667C791.362 584.287 838.249 550.156 879.994 511.898C906.009 487.894 929.604 449.261 962.879 441.385C964.391 441.01 966.206 440.635 968.021 440.26C1040.02 432.383 1109.89 556.532 1180.07 511.898C1204.88 496.145 1212.14 453.762 1225.15 424.507C1245.41 378.748 1271.43 339.365 1299.86 302.608C1329.81 263.976 1357.64 213.341 1394.85 183.711C1418.44 164.957 1448.39 143.203 1474.71 136.827C1528.86 123.699 1596.62 132.326 1644.41 179.21" stroke="black" stroke-width="0.5" stroke-miterlimit="10"/>
<path d="M-95.5665 862.59C-95.5665 862.59 -91.029 817.582 -55.9391 781.95C-36.2766 762.071 -16.6141 741.067 11.5183 724.189C27.5508 714.437 42.9782 708.811 58.7082 710.686C98.9406 715.562 146.433 734.691 185.758 714.062C196.648 708.436 207.235 701.684 216.008 691.933C248.678 656.301 282.558 629.296 323.395 613.918C359.09 600.415 400.835 597.415 438.95 601.54C470.712 605.291 503.08 607.542 535.145 612.042C558.74 615.043 577.192 627.42 605.93 615.043C636.785 601.916 681.252 625.92 711.199 617.668C720.274 615.043 732.374 607.542 745.684 600.04C792.572 574.535 840.669 541.529 880.297 501.021C905.404 475.516 924.462 436.884 958.039 428.257C959.552 427.882 961.366 427.507 963.181 427.132C1035.78 418.13 1109.29 553.531 1177.96 507.022C1201.85 490.894 1210.02 447.011 1223.33 417.005C1243.6 371.247 1269.31 331.114 1297.14 293.232C1326.48 253.099 1352.5 202.089 1390.01 172.459C1413.6 153.705 1444.16 132.701 1470.78 126.7C1525.23 114.323 1595.41 123.324 1641.69 174.334" stroke="black" stroke-width="0.5" stroke-miterlimit="10"/>
<path d="M-98.8939 850.963C-98.8939 850.963 -95.2639 804.829 -61.6865 767.697C-42.9315 747.068 -22.6641 721.939 4.86339 704.31C20.5934 694.183 35.4158 688.932 50.5408 690.808C90.4707 696.059 137.358 716.312 177.288 698.684C188.481 693.808 199.371 687.807 208.748 678.43C242.93 644.299 278.02 617.669 319.463 602.666C356.67 589.163 400.23 586.163 439.555 592.164C472.528 597.415 505.5 601.541 539.077 603.416C562.37 604.541 580.52 615.418 608.955 602.291C637.995 588.788 682.462 611.668 712.107 605.291C721.182 603.416 733.887 595.915 747.197 588.788C792.572 564.409 842.182 533.653 879.994 490.519C904.194 463.139 919.017 425.632 952.897 415.88C954.409 415.505 956.224 415.13 957.737 414.755C1031.24 405.003 1110.2 550.906 1174.93 502.147C1197.62 484.893 1207 441.01 1220.91 410.254C1241.48 364.495 1266.59 323.988 1293.81 284.98C1322.55 243.347 1347.05 192.338 1385.17 162.332C1409.07 143.953 1438.71 125.2 1466.84 117.698C1521.29 103.071 1597.83 118.824 1638.97 170.584" stroke="black" stroke-width="0.5" stroke-miterlimit="10"/>
<path d="M-102.222 839.335C-102.222 839.335 -98.5915 792.451 -67.1316 753.069C-47.7716 729.064 -25.9917 701.309 -1.79171 684.431C13.0308 673.929 27.5507 669.053 42.6757 670.928C83.5131 676.179 127.981 698.308 168.818 683.681C180.313 679.555 191.808 673.929 201.488 665.302C236.88 632.671 273.18 605.666 314.925 590.663C353.645 576.785 398.718 572.66 438.95 580.911C473.132 588.037 508.525 596.289 543.615 595.914C566.907 595.539 585.057 605.291 613.492 590.663C641.322 576.785 685.789 598.915 714.224 592.913C723.299 591.038 736.004 584.662 749.314 577.535C794.084 554.656 843.392 525.025 878.482 480.017C901.169 450.761 913.269 414.379 947.754 403.502C949.266 403.127 951.081 402.752 952.594 402.377C1026.71 391.875 1108.99 546.78 1171.6 497.27C1193.99 479.642 1204.27 435.383 1218.19 403.502C1238.76 357.744 1263.56 317.236 1289.58 276.353C1317.41 233.22 1341.61 181.835 1380.03 152.58C1403.92 134.201 1434.48 115.823 1462.61 109.071C1517.66 95.5687 1596.31 112.072 1635.94 167.207" stroke="black" stroke-width="0.5" stroke-miterlimit="10"/>
<path d="M-105.852 827.708C-105.852 827.708 -103.129 779.699 -72.8791 737.316C-54.4267 711.811 -33.2517 681.805 -9.05174 664.177C5.46823 653.675 19.6857 648.424 34.2057 650.299C75.0431 655.55 118.301 679.18 159.44 667.178C171.238 663.802 183.338 658.926 193.018 650.675C229.62 619.544 266.828 592.163 308.875 576.035C348.2 561.032 394.785 555.782 435.622 565.533C471.922 574.16 508.525 588.413 546.64 587.663C571.142 587.287 589.292 594.414 617.425 579.036C644.347 564.408 688.512 585.787 716.342 579.786C725.417 577.911 738.122 571.91 751.129 565.533C795.294 543.779 843.089 515.274 875.457 468.765C896.934 438.009 907.219 402.377 941.704 391.125C943.216 390.75 945.031 390 946.544 390C1020.35 378.748 1101.73 541.154 1166.76 490.894C1190.06 472.891 1200.34 428.257 1214.56 396.751C1235.13 350.992 1260.24 308.984 1284.74 267.727C1310.75 224.593 1335.86 170.958 1374.58 142.453C1398.78 124.449 1429.64 106.446 1457.77 100.07C1513.43 87.6923 1594.2 104.571 1632.31 163.082" stroke="black" stroke-width="0.5" stroke-miterlimit="10"/>
<path d="M-109.179 816.081C-109.179 816.081 -107.061 766.947 -78.324 721.188C-61.3841 694.183 -40.2091 661.927 -16.0091 643.924C-1.79167 633.422 12.1233 628.171 26.3408 630.046C66.8757 635.297 109.226 660.427 150.366 651.05C162.768 648.424 175.17 643.924 185.153 636.047C222.663 606.416 260.475 577.911 302.523 560.283C343.965 543.029 389.038 537.028 429.875 546.78C467.082 555.407 507.92 579.786 549.06 579.786C575.377 579.786 593.83 585.412 621.66 568.534C647.977 552.781 691.84 573.035 719.367 567.409C728.139 565.534 740.542 559.532 754.154 553.531C798.622 533.277 843.089 504.397 872.734 457.513C893.002 425.632 902.984 390.375 937.469 378.748C938.982 378.373 940.797 377.623 942.309 377.623C1018.24 365.245 1096.89 534.028 1163.74 484.893C1187.94 467.265 1198.53 421.506 1212.74 389.625C1233.01 343.866 1257.51 301.108 1280.81 259.475C1305.31 215.217 1331.32 160.832 1370.35 132.701C1394.85 115.073 1426.91 95.5691 1454.44 91.4433C1511.01 82.8167 1591.47 94.4439 1630.19 159.331" stroke="black" stroke-width="0.5" stroke-miterlimit="10"/>
<path d="M-112.506 804.454C-110.994 766.197 -98.8939 735.816 -83.7689 704.685C-69.5515 675.805 -47.1665 642.798 -23.2691 624.045C-9.35408 613.168 4.56089 607.917 18.4759 609.792C58.7083 614.668 100.453 642.048 140.988 634.922C153.088 632.671 166.398 628.921 176.683 621.419C214.798 593.289 252.913 564.033 294.96 543.029C337.613 521.65 381.475 511.898 422.615 523.151C461.335 533.653 505.197 568.159 549.665 571.535C578.402 573.785 597.46 577.161 625.29 559.532C659.17 537.778 687 569.659 722.392 556.157C731.165 552.781 743.567 547.905 756.877 542.279C801.647 522.775 840.367 495.02 868.499 447.011C887.557 414.38 898.749 378.748 932.629 366.746C934.142 365.996 935.957 365.621 937.469 365.245C1015.21 351.743 1091.14 526.151 1159.81 478.142C1184.61 460.889 1195.5 414.38 1210.02 381.749C1229.99 336.365 1253.58 293.232 1275.97 250.474C1299.86 204.715 1326.48 150.33 1365.81 122.574C1390.61 105.321 1422.98 86.1923 1450.81 82.4416C1507.98 74.5651 1590.26 86.9425 1627.77 155.581" stroke="black" stroke-width="0.5" stroke-miterlimit="10"/>
<path d="M-115.834 792.827C-115.229 753.444 -103.734 720.063 -89.2141 687.057C-76.2066 657.426 -54.1241 622.92 -30.5292 603.791C-16.9167 592.914 -3.00172 587.663 10.6108 589.163C50.8432 594.039 91.0756 622.545 131.611 618.044C143.711 616.543 157.323 613.168 167.91 605.666C207.235 578.286 246.258 547.155 287.7 522.025C330.655 495.77 374.215 482.268 415.355 494.645C455.587 506.647 500.962 552.406 547.547 560.658C579.31 566.284 599.88 568.159 627.105 549.406C660.984 526.151 689.117 557.657 724.509 543.78C733.282 540.404 745.079 535.528 758.389 529.527C802.857 509.648 836.737 483.768 863.357 435.759C881.809 402.378 893.607 366.371 927.184 353.993C928.696 353.243 930.511 352.868 932.024 352.493C1011.58 338.24 1084.79 517.525 1155.27 470.641C1180.68 453.762 1192.17 406.128 1206.39 373.497C1226.05 328.113 1248.44 284.605 1270.22 241.097C1293.51 194.213 1320.74 139.453 1360.67 112.072C1385.77 94.819 1418.44 76.4405 1446.58 73.0649C1504.66 65.5635 1588.45 79.4411 1624.75 150.705" stroke="black" stroke-width="0.5" stroke-miterlimit="10"/>
<path d="M-119.161 781.2C-119.161 740.317 -108.574 704.31 -94.3565 669.428C-82.2565 639.423 -60.779 603.416 -37.1841 583.912C-23.5716 572.66 -9.95912 567.409 3.65335 568.909C43.5833 573.41 82.9082 603.416 123.443 601.165C135.543 600.415 149.156 597.039 160.046 589.913C200.883 562.908 241.115 528.026 281.65 498.021C323.698 467.265 365.745 451.887 408.7 463.139C454.075 475.141 494.912 529.527 543.01 547.155C568.42 556.532 604.417 555.782 628.315 539.653C663.707 515.649 693.655 546.78 727.232 532.152C735.702 528.401 747.499 523.9 760.809 517.899C804.369 498.021 834.317 472.891 859.122 424.882C876.667 390.75 889.069 354.743 922.647 341.991C924.159 341.241 925.974 340.866 927.487 340.491C1008.56 325.113 1079.34 509.273 1151.64 463.514C1200.95 432.383 1234.83 295.857 1265.38 232.095C1288.37 184.086 1315.9 129.325 1356.43 102.32C1381.84 85.442 1414.81 67.8137 1443.25 64.438C1502.24 57.6867 1587.54 72.3145 1622.63 146.954" stroke="black" stroke-width="0.5" stroke-miterlimit="10"/>
<path d="M-122.489 769.573C-122.791 729.815 -114.321 686.682 -99.8015 652.551C-87.0965 622.17 -67.7365 584.288 -44.1416 564.034C-30.5291 552.407 -16.9166 547.531 -3.60667 548.656C36.3233 552.782 74.7407 583.913 114.973 584.288C127.073 584.288 140.686 581.287 151.576 573.786C194.833 546.03 235.368 503.272 275.6 471.016C312.505 441.385 356.065 412.505 401.743 429.383C452.26 447.762 490.375 506.648 536.355 528.777C564.185 542.28 596.855 550.906 627.105 529.527C662.8 504.397 694.562 535.903 728.744 520.901C736.912 517.15 748.709 512.274 761.717 506.273C804.369 485.644 830.687 460.889 853.979 413.63C870.919 379.124 883.927 342.367 917.202 329.614C918.714 328.864 920.529 328.489 922.042 328.114C1004.62 311.611 1072.99 499.897 1146.8 455.263C1196.71 424.882 1229.38 286.481 1259.33 221.969C1282.02 173.209 1309.85 118.074 1351.29 91.4438C1377 74.9406 1410.58 57.6873 1438.71 54.6868C1498.61 48.6856 1585.42 64.0635 1619 141.703" stroke="black" stroke-width="0.5" stroke-miterlimit="10"/>
<path d="M-125.816 757.57C-127.026 716.687 -118.859 671.303 -105.246 635.672C-93.449 604.916 -74.694 564.783 -50.7966 544.529C-37.1841 532.902 -23.2691 527.651 -10.2617 528.776C29.6683 532.527 67.1782 564.783 107.108 567.784C119.511 568.534 132.518 565.533 143.711 558.407C189.388 529.526 229.318 479.642 270.155 443.26C305.85 411.379 349.108 378.748 395.088 395.251C447.722 414.004 484.325 476.266 529.397 507.397C556.622 526.151 591.712 543.029 623.777 519.4C659.472 493.145 694.26 526.526 729.652 510.398C737.819 506.647 749.314 501.771 761.717 495.395C803.159 474.391 826.452 449.261 848.837 403.127C865.777 368.246 878.482 331.489 911.757 317.986C913.269 317.236 915.084 316.861 916.597 316.486C997.666 299.608 1067.85 493.895 1141.96 447.761C1193.99 415.13 1223.63 277.478 1253.58 213.341C1276.27 164.582 1304.4 108.696 1346.15 82.4413C1372.16 66.3132 1406.04 49.435 1434.48 46.8095C1495.28 41.1834 1583.31 57.6866 1615.67 137.952" stroke="black" stroke-width="0.5" stroke-miterlimit="10"/>
<path d="M-129.144 745.943C-130.959 703.56 -123.699 657.051 -110.692 618.794C-99.8016 586.913 -81.0466 545.655 -57.1492 525.026C-43.5367 513.024 -29.3192 507.773 -16.3117 508.898C23.6182 512.273 60.8256 545.655 100.453 550.906C112.856 552.406 125.863 550.156 137.358 543.029C184.548 513.024 224.78 454.137 265.618 414.38C300.103 380.998 342.755 344.992 389.038 361.12C442.882 379.873 479.787 444.761 522.742 483.018C547.85 505.147 585.057 532.902 618.635 508.898C655.54 482.268 693.654 517.9 730.559 500.646C738.727 496.896 749.919 492.02 762.019 485.643C801.647 464.639 823.427 438.009 844.904 393.376C861.542 358.494 874.247 320.987 907.522 307.484C909.034 306.734 910.849 306.359 912.362 305.984C994.944 288.356 1062.7 485.643 1138.03 440.635C1191.27 409.129 1219.1 269.227 1248.74 204.715C1271.13 155.956 1300.17 99.3199 1342.21 73.4399C1368.53 57.6869 1401.81 43.0592 1431.45 38.9334C1494.67 30.6818 1583.91 54.3113 1613.56 134.202" stroke="black" stroke-width="0.5" stroke-miterlimit="10"/>
<path d="M-132.471 733.566C-134.891 689.683 -128.539 642.049 -116.439 601.916C-106.456 568.91 -87.7015 526.527 -63.5015 505.523C-49.5865 493.52 -35.3691 488.269 -22.0591 489.019C18.7783 492.02 55.0782 526.152 94.4032 533.653C106.503 535.903 119.813 534.778 131.611 526.152C180.313 491.27 218.428 427.883 261.08 384.375C294.96 349.868 336.403 311.986 382.685 326.989C437.135 344.992 475.25 410.63 515.482 455.263C540.287 483.018 575.075 518.275 611.98 495.021C651.305 470.266 690.932 508.898 729.652 490.145C737.819 486.394 748.709 481.143 760.507 474.767C828.872 436.885 837.039 322.488 902.379 295.858C903.892 295.108 905.707 294.732 907.219 294.357C991.314 275.604 1056.05 474.767 1133.19 432.009C1186.43 402.378 1213.95 259.476 1242.99 195.339C1265.38 145.829 1294.72 89.1933 1337.68 64.0635C1364.3 48.3105 1397.87 34.4329 1427.82 31.0572C1492.25 23.1807 1582.1 47.5604 1610.53 130.076" stroke="black" stroke-width="0.5" stroke-miterlimit="10"/>
<path d="M-136.101 721.564C-140.034 674.68 -132.471 629.671 -121.884 585.413C-113.414 550.531 -94.054 507.773 -69.249 486.394C-55.0316 474.016 -40.8141 469.141 -27.2016 469.141C14.5433 469.141 50.5407 504.397 89.5632 513.774C101.663 516.775 114.973 515.649 126.771 506.648C176.381 469.891 213.89 400.127 256.543 354.369C289.515 319.112 330.05 280.855 376.333 294.732C431.085 311.235 470.107 377.248 507.92 425.632C531.212 455.263 566 502.522 604.72 479.267C645.557 454.513 684.882 499.896 727.232 480.018C735.702 476.267 745.987 471.016 757.482 464.265C824.032 425.257 832.502 311.235 896.934 284.23C898.447 283.48 900.262 283.105 901.774 282.73C987.381 263.601 1049.39 463.514 1127.74 423.007C1180.98 395.251 1208.51 249.724 1236.94 185.587C1259.33 135.327 1289.28 79.0663 1332.53 54.6866C1359.46 39.3087 1393.34 26.1812 1423.59 22.8055C1489.23 15.3041 1579.68 40.4339 1606.9 125.575" stroke="black" stroke-width="0.5" stroke-miterlimit="10"/>
<path d="M-139.429 709.561C-143.966 661.552 -137.311 614.668 -127.631 569.284C-120.069 533.277 -100.104 489.394 -74.9965 467.64C-60.4766 454.887 -46.2591 449.636 -32.3441 448.511C10.6108 445.135 46.9107 480.767 85.9332 492.019C98.0331 495.395 111.343 494.645 123.443 485.268C173.356 446.636 209.958 372.747 252.913 325.488C285.28 289.856 324.605 253.474 370.585 265.476C426.245 280.104 464.662 344.241 500.962 395.251C523.347 426.757 557.832 483.393 598.367 462.014C641.322 439.884 678.832 492.019 724.509 470.64C732.979 466.89 742.962 461.263 754.154 454.512C818.889 414.38 828.569 300.358 892.094 273.728C893.607 272.978 895.422 272.603 896.934 272.227C983.751 252.349 1043.65 452.637 1122.6 414.38C1175.54 388.875 1203.37 240.346 1231.5 176.209C1253.88 125.199 1284.44 69.3139 1328.3 45.6844C1355.52 31.0566 1390.01 18.3041 1420.26 15.3036C1486.81 8.55229 1577.86 33.6821 1604.18 121.074" stroke="black" stroke-width="0.5" stroke-miterlimit="10"/>
<path d="M-142.756 697.559C-147.899 648.424 -143.361 597.04 -133.077 553.156C-124.304 516.399 -109.179 473.641 -80.4416 448.886C-65.9216 436.509 -51.0992 429.008 -36.8817 426.757C6.37572 420.381 43.5831 454.888 82.0006 468.39C94.1006 472.516 107.411 471.391 119.813 461.639C169.725 421.881 205.42 344.992 248.375 297.358C280.44 262.101 318.253 229.095 364.233 239.221C420.497 251.599 458.31 311.235 493.4 363.745C515.482 396.751 552.085 462.389 591.41 442.885C632.247 422.631 671.572 483.768 719.972 461.264C728.442 457.138 738.122 451.887 749.012 445.136C814.049 404.628 823.427 289.856 887.254 263.226C888.767 262.476 890.582 262.101 892.094 261.726C979.819 241.847 1037.9 441.76 1117.15 405.753C1169.49 382.124 1198.53 230.595 1225.75 167.208C1247.83 115.823 1279.29 60.3124 1323.76 37.0579C1351.59 22.8052 1386.08 10.803 1416.63 7.80238C1484.09 1.42616 1575.44 26.931 1601.15 116.573" stroke="black" stroke-width="0.5" stroke-miterlimit="10"/>
<path d="M-146.084 685.181C-155.461 600.79 -143.966 484.893 -85.8865 430.133C-10.2617 358.869 56.8932 484.143 117.393 436.884C195.135 376.123 244.745 201.714 358.183 217.467C412.935 224.969 451.05 279.354 484.325 329.239C507.012 362.995 540.892 438.009 584.755 422.256C614.702 411.379 628.617 437.634 654.33 449.637C686.092 464.264 713.922 457.138 743.869 436.509C805.579 394.126 820.099 276.729 882.717 252.724C971.652 218.968 1028.52 430.508 1112.31 396.001C1157.69 377.248 1176.75 265.477 1197.01 214.092C1225.45 142.453 1259.03 57.3119 1320.13 28.4314C1402.11 -10.201 1561.22 -27.4542 1598.73 112.072" stroke="black" stroke-width="0.5" stroke-miterlimit="10"/>
</svg>
