<svg width="1440" height="557" viewBox="0 0 1440 557" fill="none" xmlns="http://www.w3.org/2000/svg">
<g clip-path="url(#clip0_7198_592)">
<path d="M183.2 100V111.237V111.237C177.898 111.237 173.6 115.535 173.6 120.837V125.684H188V161H156V125.684V125.684C156 111.499 167.499 100 181.684 100H183.2Z" fill="white"/>
<path d="M225.2 100V111.237V111.237C219.898 111.237 215.6 115.535 215.6 120.837V125.684H230V161H198V125.684V125.684C198 111.499 209.499 100 223.684 100H225.2Z" fill="white"/>
<path d="M1273.8 466L1273.8 454.763V454.763C1279.1 454.763 1283.4 450.465 1283.4 445.163L1283.4 440.316L1269 440.316L1269 405L1301 405L1301 440.316V440.316C1301 454.501 1289.5 466 1275.32 466L1273.8 466Z" fill="white"/>
<path d="M1231.8 466L1231.8 454.763V454.763C1237.1 454.763 1241.4 450.465 1241.4 445.163L1241.4 440.316L1227 440.316L1227 405L1259 405L1259 440.316V440.316C1259 454.501 1247.5 466 1233.32 466L1231.8 466Z" fill="white"/>
<g opacity="0.5">
<path opacity="0.5" d="M1467.91 -16.9725C1406.34 -37.9279 1243.34 -43.2977 1083.92 102.866C884.659 285.571 366.858 273.783 190.864 338.614C50.0684 390.478 -6.46305 483.336 -17.1294 523.283" stroke="#CFDDEE"/>
<path opacity="0.5" d="M1467.91 192.281C1419.51 179.442 1291.37 176.153 1166.04 265.703C1009.39 377.642 602.33 370.42 463.974 410.14C353.29 441.916 308.848 498.808 300.464 523.283" stroke="#CFDDEE"/>
<path opacity="0.5" d="M1467.91 355.879C1432.19 349.387 1337.61 347.723 1245.12 393.013C1129.51 449.625 829.083 445.973 726.972 466.061C645.282 482.131 612.482 510.905 606.293 523.283" stroke="#CFDDEE"/>
<path opacity="0.5" d="M1467.91 97.1664C1413.17 80.6382 1268.24 76.4028 1126.51 191.686C949.335 335.792 488.955 326.495 332.477 377.629C207.294 418.536 157.032 491.777 147.548 523.283" stroke="#CFDDEE"/>
<path opacity="0.5" d="M1467.91 260.764C1424.87 250.582 1310.93 247.973 1199.5 318.996C1060.21 407.775 698.264 402.047 575.242 433.549C476.825 458.751 437.309 503.872 429.854 523.283" stroke="#CFDDEE"/>
<path opacity="0.5" d="M1467.91 439.582C1441.09 436.336 1370.08 435.503 1300.63 458.149C1213.82 486.455 988.245 484.629 911.573 494.673C850.238 502.709 825.61 517.095 820.964 523.284" stroke="#CFDDEE"/>
</g>
</g>
<defs>
<clipPath id="clip0_7198_592">
<rect width="1440" height="557" fill="white"/>
</clipPath>
</defs>
</svg>
