<svg width="1440" height="606" viewBox="0 0 1440 606" fill="none" xmlns="http://www.w3.org/2000/svg">
<path d="M183.2 136V147.237C177.898 147.237 173.6 151.535 173.6 156.837V161.684H188V197H156V161.684C156 147.499 167.499 136 181.684 136H183.2Z" fill="white"/>
<path d="M225.2 136V147.237C219.898 147.237 215.6 151.535 215.6 156.837V161.684H230V197H198V161.684C198 147.499 209.499 136 223.684 136H225.2Z" fill="white"/>
<path d="M1273.8 502L1273.8 490.763C1279.1 490.763 1283.4 486.465 1283.4 481.163L1283.4 476.316L1269 476.316L1269 441L1301 441L1301 476.316C1301 490.501 1289.5 502 1275.32 502L1273.8 502Z" fill="white"/>
<path d="M1231.8 502L1231.8 490.763C1237.1 490.763 1241.4 486.465 1241.4 481.163L1241.4 476.316L1227 476.316L1227 441L1259 441L1259 476.316C1259 490.501 1247.5 502 1233.32 502L1231.8 502Z" fill="white"/>
<g opacity="0.5">
<path opacity="0.5" d="M1463 13.0667C1401.63 -9.9044 1239.19 -15.7907 1080.32 144.432C881.727 344.713 365.684 331.79 190.287 402.858C49.9697 459.711 -6.36983 561.502 -17 605.291" stroke="#CFDDEE"/>
<path opacity="0.5" d="M1463 242.449C1414.76 228.375 1287.05 224.769 1162.16 322.934C1006.04 445.641 600.357 437.724 462.47 481.264C352.162 516.097 307.871 578.462 299.515 605.291" stroke="#CFDDEE"/>
<path opacity="0.5" d="M1463 421.784C1427.4 414.667 1333.15 412.843 1240.97 462.49C1125.75 524.547 826.34 520.544 724.575 542.564C643.163 560.18 610.474 591.722 604.306 605.29" stroke="#CFDDEE"/>
<path opacity="0.5" d="M1463 138.184C1408.44 120.066 1264.01 115.424 1122.75 241.797C946.184 399.764 487.366 389.573 331.42 445.625C206.662 490.467 156.57 570.754 147.119 605.291" stroke="#CFDDEE"/>
<path opacity="0.5" d="M1463 317.519C1420.11 306.357 1306.55 303.497 1195.5 381.352C1056.68 478.671 695.965 472.392 573.361 506.925C475.278 534.55 435.896 584.012 428.466 605.29" stroke="#CFDDEE"/>
<path opacity="0.5" d="M1463 513.537C1436.27 509.979 1365.5 509.066 1296.29 533.89C1209.77 564.92 984.962 562.918 908.55 573.928C847.423 582.737 822.879 598.506 818.248 605.291" stroke="#CFDDEE"/>
</g>
</svg>
