<svg width="52" height="53" viewBox="0 0 52 53" fill="none" xmlns="http://www.w3.org/2000/svg">
<g clip-path="url(#clip0_7251_71)">
<path d="M23.1196 31.7489L31.4054 26.8779L23.1196 22.0068V31.7489Z" fill="white"/>
<path d="M26.2924 0.87793C12.2266 0.87793 0.820068 12.5207 0.820068 26.8779C0.820068 41.2351 12.2266 52.8779 26.2924 52.8779C40.3582 52.8779 51.7647 41.2351 51.7647 26.8779C51.7647 12.5207 40.3582 0.87793 26.2924 0.87793ZM42.2087 26.9045C42.2087 26.9045 42.2087 32.1774 41.5534 34.7201C41.1861 36.1118 40.111 37.2091 38.7476 37.5836C36.2565 38.2529 26.2924 38.2529 26.2924 38.2529C26.2924 38.2529 16.3543 38.2529 13.8372 37.5571C12.4738 37.1826 11.3987 36.0848 11.0314 34.6931C10.3757 32.1774 10.3757 26.8779 10.3757 26.8779C10.3757 26.8779 10.3757 21.6054 11.0314 19.0628C11.3983 17.6711 12.4998 16.5467 13.8372 16.1722C16.3283 15.5029 26.2924 15.5029 26.2924 15.5029C26.2924 15.5029 36.2565 15.5029 38.7476 16.1988C40.111 16.5733 41.1861 17.6711 41.5534 19.0628C42.2352 21.6054 42.2087 26.9045 42.2087 26.9045V26.9045Z" fill="white"/>
</g>
<defs>
<clipPath id="clip0_7251_71">
<rect width="50.9447" height="52" fill="white" transform="translate(0.820068 0.87793)"/>
</clipPath>
</defs>
</svg>
