<svg width="53" height="53" viewBox="0 0 53 53" fill="none" xmlns="http://www.w3.org/2000/svg">
<g clip-path="url(#clip0_7251_83)">
<path d="M31.4514 22.501C29.2259 22.501 28.232 23.7242 27.6759 24.583V22.7984H23.4846C23.5391 23.9798 23.4846 35.4088 23.4846 35.4088H27.6759V28.3637C27.6759 27.9877 27.7 27.6097 27.8131 27.3405C28.1168 26.5865 28.8059 25.8062 29.9642 25.8062C31.4807 25.8062 32.0871 26.9624 32.0871 28.659V35.4057H36.2783H36.2794V28.1741C36.2773 24.3034 34.2089 22.501 31.4514 22.501ZM27.6727 24.627H27.6465C27.6549 24.6123 27.6675 24.5987 27.6727 24.584V24.627Z" fill="white"/>
<path d="M21.1617 22.7988H16.9705V35.4092H21.1617V22.7988Z" fill="white"/>
<path d="M27 0C12.6637 0 1 11.6637 1 26C1 40.3353 12.6637 52 27 52C41.3353 52 53 40.3353 53 26C53 11.6637 41.3374 0 27 0ZM40.7876 37.76C40.7876 38.8659 39.8701 39.7603 38.7359 39.7603H15.0871C13.956 39.7603 13.0375 38.8659 13.0375 37.76V13.8357C13.0375 12.7308 13.956 11.8354 15.0871 11.8354H38.7359C39.8691 11.8354 40.7876 12.7319 40.7876 13.8357V37.76Z" fill="white"/>
<path d="M19.0945 16.7197C17.6618 16.7197 16.7234 17.6602 16.7234 18.8981C16.7234 20.1077 17.6335 21.0765 19.0389 21.0765H19.0662C20.5282 21.0765 21.4383 20.1077 21.4383 18.8981C21.41 17.6612 20.5292 16.7197 19.0945 16.7197Z" fill="white"/>
</g>
<defs>
<clipPath id="clip0_7251_83">
<rect width="52" height="52" fill="white" transform="translate(0.713623 0.196289)"/>
</clipPath>
</defs>
</svg>
