<svg width="54" height="53" viewBox="0 0 54 53" fill="none" xmlns="http://www.w3.org/2000/svg">
<g clip-path="url(#clip0_7251_64)">
<path d="M32.5361 26.1602C32.5361 28.9087 30.2663 31.1367 27.4663 31.1367C24.6663 31.1367 22.3965 28.9087 22.3965 26.1602C22.3965 23.4116 24.6663 21.1836 27.4663 21.1836C30.2663 21.1836 32.5361 23.4116 32.5361 26.1602Z" fill="white"/>
<path d="M39.3227 17.3554C39.079 16.7071 38.6902 16.1204 38.185 15.6387C37.6943 15.1428 37.097 14.7612 36.4362 14.5219C35.9003 14.3176 35.0952 14.0744 33.6123 14.0082C32.0082 13.9364 31.5272 13.9209 27.4662 13.9209C23.4048 13.9209 22.9239 13.936 21.3202 14.0078C19.8373 14.0744 19.0318 14.3176 18.4963 14.5219C17.8355 14.7612 17.2377 15.1428 16.7475 15.6387C16.2423 16.1204 15.8535 16.7067 15.6094 17.3554C15.4012 17.8814 15.1535 18.6721 15.086 20.1277C15.0128 21.7019 14.9971 22.174 14.9971 26.1608C14.9971 30.1471 15.0128 30.6192 15.086 32.1938C15.1535 33.6494 15.4012 34.4397 15.6094 34.9658C15.8535 35.6144 16.2419 36.2008 16.7471 36.6824C17.2377 37.1783 17.8351 37.56 18.4959 37.7992C19.0318 38.0039 19.8373 38.2471 21.3202 38.3134C22.9239 38.3852 23.4044 38.4002 27.4658 38.4002C31.5277 38.4002 32.0086 38.3852 33.6119 38.3134C35.0948 38.2471 35.9003 38.0039 36.4362 37.7992C37.7626 37.2969 38.811 36.2678 39.3227 34.9658C39.5308 34.4397 39.7786 33.6494 39.8465 32.1938C39.9196 30.6192 39.935 30.1471 39.935 26.1608C39.935 22.174 39.9196 21.7019 39.8465 20.1277C39.779 18.6721 39.5313 17.8814 39.3227 17.3554V17.3554ZM27.4662 33.8268C23.1526 33.8268 19.6558 30.3947 19.6558 26.1604C19.6558 21.9261 23.1526 18.494 27.4662 18.494C31.7794 18.494 35.2762 21.9261 35.2762 26.1604C35.2762 30.3947 31.7794 33.8268 27.4662 33.8268ZM35.585 19.9825C34.577 19.9825 33.7598 19.1803 33.7598 18.1909C33.7598 17.2014 34.577 16.3993 35.585 16.3993C36.593 16.3993 37.4102 17.2014 37.4102 18.1909C37.4098 19.1803 36.593 19.9825 35.585 19.9825Z" fill="white"/>
<path d="M27.4663 0.160156C12.8402 0.160156 0.979248 11.8029 0.979248 26.1602C0.979248 40.5174 12.8402 52.1602 27.4663 52.1602C42.0925 52.1602 53.9534 40.5174 53.9534 26.1602C53.9534 11.8029 42.0925 0.160156 27.4663 0.160156ZM42.584 32.3154C42.5104 33.9047 42.253 34.9897 41.8771 35.9395C41.087 37.945 39.4719 39.5303 37.4289 40.3059C36.4617 40.6749 35.356 40.9272 33.7373 40.9998C32.1154 41.0724 31.5973 41.0898 27.4667 41.0898C23.3358 41.0898 22.8181 41.0724 21.1958 40.9998C19.5771 40.9272 18.4713 40.6749 17.5042 40.3059C16.4889 39.931 15.5699 39.3434 14.81 38.5837C14.0365 37.8383 13.4379 36.9357 13.056 35.9395C12.6801 34.9901 12.4227 33.9047 12.3491 32.3158C12.2743 30.7233 12.257 30.2147 12.257 26.1602C12.257 22.1056 12.2743 21.597 12.3487 20.0049C12.4223 18.4156 12.6793 17.3306 13.0552 16.3808C13.4371 15.3846 14.0361 14.4821 14.81 13.7366C15.5695 12.9769 16.4889 12.3893 17.5038 12.0144C18.4713 11.6454 19.5767 11.3931 21.1958 11.3205C22.8177 11.2479 23.3358 11.2305 27.4663 11.2305C31.5969 11.2305 32.115 11.2479 33.7369 11.3209C35.356 11.3931 36.4613 11.6454 37.4289 12.014C38.4437 12.3889 39.3632 12.9769 40.123 13.7366C40.8966 14.4825 41.4956 15.3846 41.8771 16.3808C42.2534 17.3306 42.5104 18.4156 42.5844 20.0049C42.6583 21.597 42.6757 22.1056 42.6757 26.1602C42.6757 30.2147 42.6583 30.7233 42.584 32.3154V32.3154Z" fill="white"/>
</g>
<defs>
<clipPath id="clip0_7251_64">
<rect width="52.9742" height="52" fill="white" transform="translate(0.979248 0.160156)"/>
</clipPath>
</defs>
</svg>
