<svg width="56" height="53" viewBox="0 0 56 53" fill="none" xmlns="http://www.w3.org/2000/svg">
<path d="M27.8147 0.124023C12.656 0.124023 0.323364 11.7877 0.323364 26.124C0.323364 40.4593 12.656 52.124 27.8147 52.124C42.9723 52.124 55.306 40.4593 55.306 26.124C55.306 11.7877 42.9745 0.124023 27.8147 0.124023ZM40.0787 20.1733C40.0909 20.431 40.0975 20.6907 40.0975 20.9504C40.0975 28.8585 33.7346 37.9741 22.093 37.9741C18.5195 37.9741 15.193 36.9865 12.3936 35.2878C12.8886 35.3433 13.3924 35.3716 13.9029 35.3716C16.8684 35.3716 19.5959 34.4144 21.7619 32.8099C18.9935 32.7617 16.6558 31.0316 15.8508 28.6532C16.2361 28.7223 16.6337 28.7611 17.0401 28.7611C17.617 28.7611 18.1773 28.6899 18.7078 28.5527C15.8131 28.0039 13.6327 25.5857 13.6327 22.6847C13.6327 22.6596 13.6327 22.6334 13.6338 22.6093C14.4865 23.0565 15.4621 23.3267 16.4986 23.3571C14.8021 22.2857 13.6848 20.453 13.6848 18.3772C13.6848 17.2797 13.9959 16.2512 14.5408 15.3673C17.6602 18.9888 22.3244 21.3704 27.5822 21.6217C27.4736 21.1829 27.4194 20.7273 27.4194 20.2571C27.4194 16.9529 30.252 14.2729 33.7457 14.2729C35.5662 14.2729 37.2084 14.9997 38.3645 16.1622C39.8074 15.8941 41.1584 15.3977 42.3842 14.7096C41.9081 16.1077 40.9081 17.2797 39.5981 18.0211C40.8793 17.8766 42.1019 17.5561 43.2325 17.0796C42.3887 18.2777 41.3156 19.3324 40.0787 20.1733Z" fill="white"/>
</svg>
