<svg width="141" height="30" viewBox="0 0 141 30" fill="none" xmlns="http://www.w3.org/2000/svg">
<g clip-path="url(#clip0_7006_24)">
<path d="M0 0.180008H17.6828V4.33385H4.82636V12.8077H17.1835V16.8369H4.82636V29.4231H0V0.180008Z" fill="black"/>
<path d="M20.8341 10.3985H25.4109V29.4231H20.8341V10.3985Z" fill="black"/>
<path d="M25.5 0H21V4H25.5V0Z" fill="#EC8675"/>
<path d="M32.4697 14.1369H28.309V10.3985H32.4697V5.33078L37.0464 5.33063V10.3985H41.956V14.1369H37.0464V29.4231H32.4697V14.1369Z" fill="black"/>
<path d="M56.5755 9.94154C58.7115 9.94154 60.3757 10.5369 61.5685 11.7277C62.7889 12.8908 63.3991 14.6492 63.3991 17.0031V29.4231H58.864V17.8754C58.864 16.4908 58.5034 15.4523 57.7821 14.76C57.0609 14.0677 56.0624 13.7215 54.7864 13.7215C53.566 13.7215 52.4981 14.04 51.5827 14.6769C50.6674 15.3139 49.9878 16.1862 49.544 17.2939V29.4231H44.9673V10.3985H49.544V13.3892C50.3207 12.2815 51.3053 11.4369 52.4981 10.8554C53.6908 10.2462 55.0499 9.94154 56.5755 9.94154Z" fill="black"/>
<path d="M84.8219 18.4569C84.8219 19.26 84.7248 20.2569 84.5307 21.4477H71.1333C71.6326 24.5769 73.6852 26.1415 77.2911 26.1415C79.2882 26.1415 81.1744 25.6431 82.9496 24.6462V28.4677C80.897 29.4092 78.8444 29.88 76.7918 29.88C74.7392 29.88 72.9363 29.4646 71.383 28.6339C69.8297 27.8031 68.6231 26.64 67.7632 25.1446C66.9311 23.6215 66.515 21.8631 66.515 19.8692C66.515 17.9031 66.9033 16.1723 67.68 14.6769C68.4844 13.1539 69.6078 11.9908 71.0501 11.1877C72.5202 10.3569 74.2122 9.94154 76.1261 9.94154C78.7889 9.94154 80.897 10.7169 82.4503 12.2677C84.0314 13.7908 84.8219 15.8539 84.8219 18.4569ZM76.2093 13.68C74.7392 13.68 73.5604 14.0954 72.6728 14.9262C71.8129 15.7292 71.2859 16.9062 71.0917 18.4569H80.8693C80.8693 16.9339 80.4671 15.7569 79.6627 14.9262C78.8583 14.0954 77.7072 13.68 76.2093 13.68Z" fill="black"/>
<path d="M93.5269 26.3077C94.4977 26.3077 95.2605 26.1139 95.8153 25.7262C96.37 25.3108 96.6474 24.7431 96.6474 24.0231C96.6474 23.3862 96.37 22.8739 95.8153 22.4862C95.2883 22.0708 94.2342 21.5862 92.6532 21.0323C90.6006 20.3123 89.1166 19.5231 88.2013 18.6646C87.2859 17.8062 86.8282 16.74 86.8282 15.4662C86.8282 13.8323 87.5217 12.5031 88.9086 11.4785C90.2955 10.4539 92.1123 9.94154 94.359 9.94154C96.5781 9.94154 98.7693 10.4815 100.933 11.5615V15.3831C99.9343 14.8015 98.8664 14.3446 97.7292 14.0123C96.5919 13.6523 95.4824 13.4723 94.4006 13.4723C93.4853 13.4723 92.7641 13.6385 92.2371 13.9708C91.7378 14.2754 91.4882 14.7046 91.4882 15.2585C91.4882 15.7569 91.7101 16.1723 92.1539 16.5046C92.6254 16.8369 93.5269 17.2246 94.8583 17.6677C96.5226 18.2492 97.8124 18.8308 98.7277 19.4123C99.6708 19.9662 100.337 20.5892 100.725 21.2815C101.113 21.9739 101.307 22.8046 101.307 23.7739C101.307 25.7123 100.628 27.2215 99.2686 28.3015C97.9095 29.3539 96.0094 29.88 93.5685 29.88C91.4882 29.88 89.2969 29.2431 86.9947 27.9692V24.1892C88.021 24.8262 89.1027 25.3385 90.24 25.7262C91.3772 26.1139 92.4729 26.3077 93.5269 26.3077Z" fill="black"/>
<path d="M110.064 26.3077C111.035 26.3077 111.797 26.1139 112.352 25.7262C112.907 25.3108 113.184 24.7431 113.184 24.0231C113.184 23.3862 112.907 22.8739 112.352 22.4862C111.825 22.0708 110.771 21.5862 109.19 21.0323C107.137 20.3123 105.653 19.5231 104.738 18.6646C103.823 17.8062 103.365 16.74 103.365 15.4662C103.365 13.8323 104.059 12.5031 105.445 11.4785C106.832 10.4539 108.649 9.94154 110.896 9.94154C113.115 9.94154 115.306 10.4815 117.47 11.5615V15.3831C116.471 14.8015 115.403 14.3446 114.266 14.0123C113.129 13.6523 112.019 13.4723 110.938 13.4723C110.022 13.4723 109.301 13.6385 108.774 13.9708C108.275 14.2754 108.025 14.7046 108.025 15.2585C108.025 15.7569 108.247 16.1723 108.691 16.5046C109.162 16.8369 110.064 17.2246 111.395 17.6677C113.059 18.2492 114.349 18.8308 115.265 19.4123C116.208 19.9662 116.873 20.5892 117.262 21.2815C117.65 21.9739 117.844 22.8046 117.844 23.7739C117.844 25.7123 117.165 27.2215 115.806 28.3015C114.446 29.3539 112.546 29.88 110.105 29.88C108.025 29.88 105.834 29.2431 103.532 27.9692V24.1892C104.558 24.8262 105.64 25.3385 106.777 25.7262C107.914 26.1139 109.01 26.3077 110.064 26.3077Z" fill="black"/>
<path d="M130.47 29.88C128.39 29.88 126.559 29.4646 124.978 28.6339C123.397 27.7754 122.177 26.5985 121.317 25.1031C120.457 23.6077 120.027 21.8769 120.027 19.9108C120.027 17.9446 120.457 16.2139 121.317 14.7185C122.177 13.2231 123.397 12.06 124.978 11.2292C126.559 10.3708 128.39 9.94154 130.47 9.94154C132.55 9.94154 134.367 10.3708 135.921 11.2292C137.502 12.06 138.722 13.2231 139.582 14.7185C140.442 16.2139 140.5 27.5629 140.5 28.7815C140.5 30.0001 139 29.7815 139 29.7815C138.25 29.7815 138.32 29.7815 138 29.5C137.435 28.8405 137.701 27.3481 136.5 28.0001C135 29.5001 132.55 29.88 130.47 29.88ZM130.47 26.1415C132.134 26.1415 133.507 25.5739 134.589 24.4385C135.671 23.3031 136.212 21.7939 136.212 19.9108C136.212 18.0277 135.671 16.5185 134.589 15.3831C133.507 14.2477 132.134 13.68 130.47 13.68C128.806 13.68 127.433 14.2477 126.351 15.3831C125.269 16.5185 124.728 18.0277 124.728 19.9108C124.728 21.7939 125.269 23.3031 126.351 24.4385C127.433 25.5739 128.806 26.1415 130.47 26.1415Z" fill="black"/>
<path d="M45.2171 0H139.988V4.03846H45.2171V0Z" fill="black"/>
</g>
<defs>
<clipPath id="clip0_7006_24">
<rect width="141" height="30" fill="white"/>
</clipPath>
</defs>
</svg>
