<svg width="1217" height="769" viewBox="0 0 1217 769" fill="none" xmlns="http://www.w3.org/2000/svg">
<mask id="mask0_7281_189" style="mask-type:alpha" maskUnits="userSpaceOnUse" x="0" y="0" width="1217" height="770">
<rect width="1217" height="770" fill="#D9D9D9"/>
</mask>
<g mask="url(#mask0_7281_189)">
<path d="M-253.318 984.601C-232.411 1022.5 -195.846 1044.29 -159.517 1059.14C-86.5841 1088.94 -44.6384 976.736 13.1243 985.151C64.1278 992.429 100.797 986.167 141.786 945.541C210.657 876.895 269.542 939.507 299.106 1002.89C344.645 1100.62 385.121 1228 509.412 1222.05C601.9 1217.66 670.201 1181.68 732.859 1102.85C759.56 1069.6 788.821 1031.13 808.457 992.516C827.372 955.003 835.486 891.902 878.353 879.033C968.386 851.809 1051.01 956.458 1138.66 953.352C1200.99 951.132 1232.86 928.359 1230.85 854.653C1228.12 754.302 1342.85 756.45 1407.59 757.861C1463.63 759.13 1536.71 811.253 1592.94 780.048" stroke="black" stroke-width="0.5" stroke-miterlimit="10"/>
<path d="M-252.417 971.233C-231.337 1007.83 -194.935 1029.21 -159.755 1042.95C-119.086 1058.73 -76.2651 1024.95 -45.3961 993.925C-24.4849 972.91 -3.25796 954.41 13.9909 958.412C67.2216 970.627 98.1369 960.518 141.089 923.017C153.252 912.116 165.731 903.729 177.469 899.863C236.931 880.136 273.707 932.489 297.757 978.75C323.109 1028.23 343.758 1092.07 377.443 1136.77C413.913 1184.9 454.818 1207.62 513.717 1209.6C549.85 1210.68 593.227 1204.85 625.563 1186.7C665.073 1164.37 699.478 1130.55 731.261 1093.7C737.794 1086.19 744.002 1077.87 750.209 1069.56C774.766 1036.19 794.14 1005.02 810.696 966.286C826.582 929.362 831.733 884.344 869.405 866.123C870.838 865.627 872.383 864.83 873.816 864.334C964.723 838.119 1046.95 946.385 1135.24 944.891C1199.54 944.088 1225.76 918.875 1224.42 845.072C1223.35 791.58 1259.55 769.732 1300.48 759.569C1333.8 751.381 1372.8 751.464 1408.27 752.637C1463.16 754.504 1536.7 803.713 1591.64 775.116" stroke="black" stroke-width="0.5" stroke-miterlimit="10"/>
<path d="M-251.018 957.366C-229.766 992.655 -193.355 1012.33 -158.988 1024.05C-117.374 1038.13 -74.3006 998.615 -43.4827 966.889C-22.2363 944.97 -1.23281 927.073 15.7416 930.973C66.7767 942.373 97.3472 934.876 140.991 901.401C153.145 892.208 165.227 885.73 176.793 883.171C235.505 869.673 269.768 909.447 296.074 955.518C324.505 1005.12 347.858 1067.56 380.211 1114.16C415.351 1164.2 457.812 1193.65 517.86 1196.75C552.448 1198.62 594.453 1192.29 626.077 1173.53C664.49 1150.79 698.439 1119.88 729.662 1084.54C736.084 1077.33 742.291 1069.02 748.611 1060.4C774.773 1025.23 790.844 994.545 806.424 953.396C820.775 915.56 826.261 869.64 864.756 851.724C866.189 851.228 867.734 850.431 869.167 849.935C960.837 825.03 1043.31 936.817 1131.43 936.629C1197.11 936.335 1217.29 908.882 1217.48 835.991C1217.91 780.998 1258.93 762.993 1299.96 754.238C1333.88 746.958 1372.5 747.24 1408.08 748.112C1462.69 749.877 1535.19 797.673 1589.47 770.883" stroke="black" stroke-width="0.5" stroke-miterlimit="10"/>
<path d="M-249.619 943.496C-228.897 975.164 -191.722 996.15 -157.773 1003.95C-113.223 1014.32 -72.61 972.18 -41.5176 940.555C-20.2713 918.637 0.397129 901.643 17.3716 905.543C62.0337 915.606 101 911.567 140.875 883.201C151.921 875.311 164.868 871.551 176.871 869.496C234.08 859.209 266.958 890.934 294.809 936.207C324.673 985.311 350.515 1045.25 382.757 1092.16C418.436 1144.1 461.631 1180 522.33 1184.71C555.098 1187.27 594.308 1179.21 626.369 1160.97C664.447 1139.13 698.823 1110.44 728.278 1076.49C734.812 1068.98 740.908 1060.97 747.39 1052.75C775.818 1015.69 787.65 985.48 802.203 941.21C815.019 902.462 821.278 856.143 860.871 838.634C862.304 838.138 863.848 837.341 865.556 836.947C958.151 813.756 1040.83 928.359 1128.34 928.972C1194.35 929.484 1209.1 898.989 1211.54 827.617C1213.61 771.526 1259.46 757.364 1300.59 750.017C1335 743.946 1373.18 743.724 1409.04 744.697C1463.1 746.258 1534.45 792.943 1588.44 767.761" stroke="black" stroke-width="0.5" stroke-miterlimit="10"/>
<path d="M-248.383 929.226C-226.879 958.785 -189.522 976.757 -156.55 982.14C-111.817 989.489 -71.3572 945.241 -39.6042 913.519C-18.1951 892.004 1.9147 876.515 18.6147 880.314C61.7928 890.169 99.3168 888.335 140.088 866.81C151.012 860.93 164.671 857.777 177.223 855.925C233.264 847.945 266.343 873.236 294.143 917.805C323.631 965.399 352.074 1022.54 383.879 1068.94C420.869 1122.4 466.872 1167.56 525.212 1171.05C555.399 1173 594.222 1165.14 625.4 1147.59C661.709 1127.15 697.56 1100.38 726.405 1067.23C732.827 1060.02 739.197 1052.11 745.791 1043.6C775.378 1005.93 785.35 974.008 797.056 927.312C806.397 890.357 817.522 839.335 856.659 824.74C858.092 824.244 859.911 823.549 861.344 823.053C954.59 801.474 1037.48 918.893 1124.49 920.006C1190.54 921.222 1200.25 887.486 1205.21 817.735C1209.27 761.351 1260.16 750.431 1301.23 744.089C1335.97 738.823 1373.87 738.499 1409.84 739.171C1463.46 740.228 1533.83 786.204 1586.99 762.426" stroke="black" stroke-width="0.5" stroke-miterlimit="10"/>
<path d="M-246.984 915.358C-224.861 942.407 -186.824 956.863 -154.828 959.829C-109.802 963.861 -70.0533 919.007 -37.8631 887.79C-16.5147 867.28 3.08753 854 19.7875 857.799C61.4817 867.446 98.4884 869.53 140.277 852.836C152.35 848.067 165.512 845.415 178.5 844.068C233.047 837.589 266.817 857.655 294.677 901.219C323.9 947.002 352.8 1001.23 384.665 1046.62C422.916 1100.89 469.49 1152.09 527.546 1157.18C556.574 1159.73 592.979 1151.66 624.695 1136.03C661.819 1117.6 696.399 1091.72 725.184 1059.59C731.605 1052.38 738.087 1044.16 744.57 1035.95C791.206 979.264 777.761 837.942 852.986 812.759C854.419 812.263 856.238 811.568 857.946 811.174C952.453 790.405 1031.53 910.52 1120.57 912.045C1188.22 913.168 1191.78 877.493 1199.43 809.765C1205.91 753.594 1261.95 745.613 1302.46 740.777C1337.52 736.317 1374.87 735.79 1410.95 736.161C1464.03 737.014 1532.97 781.777 1585.96 759.304" stroke="black" stroke-width="0.5" stroke-miterlimit="10"/>
<path d="M-245.86 901.389C-222.731 925.728 -184.289 936.566 -153.157 936.813C-108.386 937.325 -69.6844 892.767 -36.3454 862.662C-15.2811 843.759 4.08797 832.791 20.4018 836.789C60.3886 846.83 99.6831 852.846 140.792 839.668C153.19 835.705 166.952 833.96 179.94 832.613C233.166 826.329 268.104 844.088 296.146 884.637C325.114 926.9 352.865 980.015 384.354 1023.9C419.829 1073.03 469.018 1138.21 528.243 1141C557.993 1142.45 592.782 1137.89 623.554 1123.96C660.667 1107.24 695.187 1082.37 723.748 1050.83C730.17 1043.62 736.652 1035.41 743.409 1027.3C792.301 970.421 766.009 825.017 849.7 800.578C851.408 800.184 853.227 799.489 854.548 799.294C950.143 780.641 1028.29 889.794 1115.95 903.478C1183.6 913.85 1184.99 852.025 1193.32 800.99C1202.26 745.735 1262.91 740.491 1303.2 736.256C1338.31 732.501 1375.5 731.57 1411.31 731.839C1463.95 732.187 1531.74 775.839 1584.06 755.173" stroke="black" stroke-width="0.5" stroke-miterlimit="10"/>
<path d="M-244.461 887.521C-217.908 909.363 -182.293 914.356 -151.1 913.598C-108.687 912.893 -69.3762 867.534 -34.4513 839.044C-13.7829 822.05 5.01788 814.296 21.22 818.595C61.2578 829.34 100.096 838.27 142.069 827.811C154.519 824.552 168.717 823.311 182.092 821.766C233.885 815.977 270.386 829.521 298.601 868.764C326.979 908.41 353.693 960.112 383.982 1002.18C419.457 1051.31 468.2 1117.7 528.066 1123.81C557.531 1126.86 591.864 1125.21 622.849 1112.39C660.065 1097.08 694.635 1072.92 723.136 1042.38C729.832 1035.28 736.314 1027.06 743.071 1018.95C792.247 960.468 758.219 811.509 847.563 789.509C849.27 789.115 850.977 788.721 852.685 788.327C948.982 771.99 1025.54 879.526 1112.53 895.017C1179.9 906.997 1178.79 840.132 1189.24 792.626C1200.98 739.093 1265.8 736.081 1305.86 732.449C1340.75 729.295 1377.78 727.962 1413.31 728.129C1465.78 728.074 1531.77 770.712 1583.8 751.654" stroke="black" stroke-width="0.5" stroke-miterlimit="10"/>
<path d="M-243.285 874.255C-215.615 893.086 -179.757 894.059 -149.378 891.286C-107.332 887.362 -70.5613 843.8 -33.5622 818.136C-13.2386 803.754 4.22148 799.613 20.5863 804.315C60.289 815.963 100.55 826.107 142.788 817.458C155.675 814.703 169.985 813.162 183.523 812.019C234.808 808.44 270.86 813.939 300.722 853.793C328.784 890.924 354.349 941.515 383.438 981.767C419.513 1031.81 467.056 1096.37 525.907 1106.91C555.139 1112.27 589.127 1113.24 620.438 1101.22C657.867 1087.02 692.377 1063.86 721.152 1033.43C727.848 1026.32 735.153 1018.41 741.473 1009.79C784.816 951.887 751.701 797.1 844.491 778.435C846.198 778.04 848.18 777.748 849.887 777.354C946.388 763.833 1021.59 869.151 1107.47 885.944C1173.84 898.924 1171.49 827.831 1184.29 783.252C1198.99 731.845 1266.76 730.957 1307.26 727.83C1342.32 725.079 1378.52 723.44 1413.89 723.205C1465.93 722.645 1530.65 764.473 1581.85 746.818" stroke="black" stroke-width="0.5" stroke-miterlimit="10"/>
<path d="M-242.385 860.887C-213.373 876.105 -178.157 873.757 -148.317 869.071C-106.475 862.331 -73.0171 820.966 -34.0045 799.131C-13.9749 788.065 2.25635 787.237 18.8957 792.041C59.1472 803.893 100.557 815.147 143.121 807.305C156.17 804.953 170.48 803.412 184.404 802.07C234.703 797.782 272.971 800.677 303.065 838.22C330.812 872.836 355.391 922.719 383.331 961.86C421.968 1015.93 467.354 1072.85 523.524 1090.61C550.592 1099.28 586.003 1101.46 618.3 1090.15C655.669 1076.95 690.778 1054.7 719.442 1024.57C726.138 1017.46 733.992 1009.76 739.326 1000.43C775.431 938.47 746.056 783.702 842.181 768.671C843.888 768.277 845.87 767.985 847.74 767.993C943.886 758.794 1017.41 859.379 1102.45 877.575C1167.83 891.556 1164.63 816.036 1179.82 775.087C1197.36 727.815 1267.66 726.839 1308.99 724.017C1343.82 721.869 1379.58 719.725 1414.79 719.086C1466.67 718.124 1529.47 759.239 1580.61 742.589" stroke="black" stroke-width="0.5" stroke-miterlimit="10"/>
<path d="M-241.27 848.626C-211.304 860.43 -176.566 855.165 -146.991 848.668C-106.512 839.71 -74.9846 799.34 -34.5268 784.551C-15.6751 777.501 0.658182 778.081 17.4602 783.287C58.2606 795.343 100.88 806.704 144.155 799.467C157.479 797.218 172.176 795.477 186.099 794.135C235.91 788.639 275.732 789.028 306.497 824.764C334.202 856.966 358.181 905.942 384.587 944.171C422.563 998.339 466.577 1054.75 521.518 1075.82C548.851 1086.3 583.368 1090.89 616.651 1080.29C654.345 1067.9 689.78 1046.45 718.606 1016.72C725.302 1009.62 732.171 1001.2 736.904 990.972C766.423 926.564 741.072 770.206 840.847 761.325C842.717 761.334 844.699 761.042 846.681 760.75C942.859 755.673 1014.1 850.616 1098.31 870.216C1162.69 885.198 1159.62 805.958 1177 767.533C1197.5 722.387 1269.94 723.23 1311.43 720.812C1345.87 718.863 1381.36 716.617 1416.13 715.473C1470.21 713.617 1526.26 753.594 1579.69 739.167" stroke="black" stroke-width="0.5" stroke-miterlimit="10"/>
<path d="M-240.541 836.565C-209.784 844.552 -175.473 837.073 -146.001 829.168C-107.768 818.691 -75.2131 781.444 -35.9429 772.379C-18.2083 768.34 -1.61033 770.731 15.5779 775.738C57.0389 787.696 100.817 798.459 144.641 791.427C158.239 789.279 172.773 787.135 186.92 785.191C229.362 779.359 279.955 771.755 309.552 809.798C337.238 845.419 360.758 888.058 386.289 925.277C423.219 979.743 465.86 1035.64 519.572 1060.03C546.784 1072.52 581.068 1079.42 614.9 1069.02C652.645 1057.33 690.052 1037.3 717.618 1006.77C724.039 999.558 729.322 989.529 733.232 978.991C757.424 912.949 737.41 756.515 839.625 753.679C841.496 753.688 843.477 753.395 845.348 753.404C940.622 752.445 1010.36 841.349 1093.41 861.547C1156.36 877.025 1154.08 793.968 1173.97 758.873C1197.75 716.657 1270.41 718.608 1313.76 716.198C1348.21 714.249 1382.76 711.999 1417.1 710.351C1470.85 707.688 1525.25 747.054 1578.29 734.535" stroke="black" stroke-width="0.5" stroke-miterlimit="10"/>
<path d="M-240.036 825.106C-208.71 829.878 -174.939 820.486 -145.68 811.475C-109.917 800.081 -76.4566 767.965 -38.3644 762.916C-20.6395 760.587 -4.43734 764.886 12.7509 769.893C54.9842 781.453 100.195 791.72 144.243 784.085C157.953 781.636 172.873 779.294 187.132 777.048C229.858 769.609 280.847 760.096 311.998 795.633C340.526 828.141 363.111 870.776 387.819 907.69C424.088 962.253 464.86 1018.14 516.905 1045.33C543.833 1059.44 577.772 1068.95 612.153 1058.75C649.288 1047.87 690.538 1029.26 714.373 996.999C719.971 989.485 724.379 978.446 727.578 967.301C748.71 897.727 731.969 745.933 838.059 748.644C839.929 748.653 842.074 748.764 843.944 748.773C937.491 751.626 1006.49 834.092 1088.12 854.786C1149.74 870.458 1149.03 783.186 1170.93 751.921C1198.16 713.04 1269.54 715.889 1315.43 713.391C1349.32 711.238 1383.61 708.886 1417.5 706.733C1471.21 703.366 1523.96 742.122 1576.44 731.108" stroke="black" stroke-width="0.5" stroke-miterlimit="10"/>
<path d="M-239.368 814.05C-207.86 815.807 -174.577 805.206 -145.532 795.087C-112.188 783.481 -77.3845 757.002 -41.0191 755.765C-23.3039 755.145 -7.43692 760.347 9.97472 764.753C52.706 775.812 99.4616 785.282 144.23 776.545C158.052 773.795 173.084 771.151 187.404 767.9C230.414 758.853 281.25 747.229 314.504 780.463C344.15 809.96 366.46 852.493 390.345 889.102C425.679 943.66 464.58 999.543 515.071 1029.24C541.552 1044.54 575.695 1056.87 610.239 1047.08C646.104 1037.09 689.926 1020.81 710.701 985.017C715.313 976.795 718.897 965.451 721.822 954.204C740.726 879.692 727.84 736.865 837.427 743.614C839.298 743.623 841.442 743.734 843.587 743.844C934.97 750.005 1003.79 826.237 1083.81 847.024C1144.12 862.891 1145.46 772.613 1169.71 744.274C1200.61 708.125 1270.61 712.174 1317.93 709.18C1351.16 707.124 1385.01 704.267 1418.35 701.911C1472.17 698.243 1522.72 736.184 1575.31 726.578" stroke="black" stroke-width="0.5" stroke-miterlimit="10"/>
<path d="M-239.036 803.897C-207.457 802.939 -175.435 791.528 -145.892 780.909C-113.483 769.299 -79.0434 748.85 -44.2323 750.12C-26.6896 750.806 -10.8226 756.008 6.97521 760.214C50.4788 770.875 98.3419 779.043 143.669 768.8C157.715 765.448 172.695 762.1 187.127 758.549C230.645 747.292 280.555 733.954 315.801 765.187C346.889 792.479 369.26 834.007 392.484 870.713C427.432 925.471 463.965 981.845 513.126 1013.44C538.499 1030.05 573.395 1045.4 607.939 1035.61C643.143 1025.72 687.443 1012.36 705.27 972.726C709.17 963.897 712.481 952.451 714.968 940.699C732.692 860.954 724.86 728.908 837.121 739.39C839.266 739.501 841.41 739.611 843.169 739.921C931.951 748.885 1000.75 819.286 1078.9 840.063C1138.27 855.926 1141.1 764.147 1168.7 737.734C1203.93 704.219 1271.29 708.658 1320.2 705.571C1352.89 703.312 1386.02 699.848 1418.82 697.288C1472.58 692.917 1521.49 730.246 1573.96 722.651" stroke="black" stroke-width="0.5" stroke-miterlimit="10"/>
<path d="M-238.652 794.448C-207.501 791.277 -176.302 779.56 -147.094 769.844C-115.02 759.137 -81.596 743.107 -48.0042 745.98C-30.4104 747.37 -14.7062 752.169 3.36607 756.477C47.3675 766.638 96.6126 773.606 142.061 761.353C156.33 757.399 171.148 753.648 185.915 749.193C229.666 735.625 277.716 720.569 315.888 749.805C348.856 775.397 371.674 815.72 394.736 852.023C429.134 906.577 463.849 963.647 511.566 997.452C536.218 1015.16 571.318 1033.32 605.639 1024.14C641.28 1014.75 682.663 1001.68 698.467 959.925C701.818 950.892 704.58 939.243 707.067 927.491C724.271 842.415 722.968 723.068 836.806 736.875C838.838 737.287 840.983 737.398 843.128 737.508C928.872 748.77 998.196 813.543 1074.32 833.909C1132.59 849.365 1137.24 756.89 1168.18 732.403C1207.47 701.421 1272.29 705.949 1322.09 702.162C1354.23 699.699 1386.93 695.731 1419.17 692.967C1473.05 688.294 1520.31 725.013 1572.38 719.326" stroke="black" stroke-width="0.5" stroke-miterlimit="10"/>
<path d="M-238.766 785.5C-208.266 780.717 -178.063 770.001 -148.804 760.989C-117.065 751.185 -84.4329 738.972 -51.6134 742.244C-34.1314 743.935 -18.2037 748.132 -0.0197191 752.138C44.4796 761.799 95.1067 767.567 140.789 753.003C155.006 748.344 170.159 743.69 184.6 738.429C232.995 720.761 272.256 713.406 313.831 734.313C348.768 752.072 373.6 796.225 396.387 832.426C430.46 886.174 463.681 944.745 509.956 980.755C533.998 999.267 569.526 1019.64 603.674 1011.76C638.482 1003.78 677.303 986.67 690.789 946.116C693.866 936.981 696.353 925.23 698.566 913.376C716.348 823.376 723.109 717.64 836.764 734.462C838.797 734.874 840.942 734.985 842.974 735.397C925.518 748.554 995.419 808.403 1069.62 828.056C1127.34 843.308 1132.88 750.133 1168.21 727.276C1212.1 699.03 1273.13 702.836 1323.98 698.752C1355.3 695.984 1387.44 691.812 1418.98 688.442C1472.81 683.065 1518.58 719.576 1570.64 715.598" stroke="black" stroke-width="0.5" stroke-miterlimit="10"/>
<path d="M-238.606 776.653C-209.092 771.162 -179.661 760.844 -150.463 752.838C-119.557 744.437 -86.3348 734.841 -54.7248 738.006C-37.6289 739.897 -20.9799 742.991 -2.95869 746.595C42.0386 755.755 93.6614 760.522 139.414 743.244C153.855 737.983 169.343 732.426 183.184 726.258C227.737 707.164 268.95 704.643 308.959 720.516C347.046 735.675 375.149 775.22 398.597 811.323C432.568 863.663 464.589 920.418 509.676 962.154C533.862 984.487 567.682 1005.26 602.765 997.379C637.462 989.7 671.241 969.349 683.01 930.898C685.701 921.962 688.025 909.808 690.512 898.056C709.584 803.739 726.167 711.923 838.267 731.252C840.3 731.664 842.445 731.775 844.752 732.288C924.318 746.738 994.462 802.567 1066.47 821.405C1123.64 836.454 1129.67 742.779 1169.78 721.352C1218 695.74 1275.25 698.825 1327.09 693.74C1357.86 690.768 1389.02 685.888 1420.28 682.416C1474.6 676.539 1518.62 712.739 1570.56 710.772" stroke="black" stroke-width="0.5" stroke-miterlimit="10"/>
<path d="M-238.67 768.408C-209.867 762.31 -181.046 752.794 -152.569 745.89C-121.724 738.495 -89.395 731.307 -58.2731 733.264C-40.8421 734.251 -24.1324 736.34 -5.99939 739.643C39.4957 748.302 91.8399 751.967 137.276 732.174C151.778 725.908 166.494 720.749 179.451 715.28C222.012 698.188 260.857 696.159 300.225 708.711C340.141 721.466 371.841 757.207 397.28 791.309C433.802 840.142 464.594 900.209 508.462 943.547C531.052 965.974 566.052 991.977 599.275 982.381C630.678 973.481 662.15 952.616 673.137 916.272C675.828 907.337 678.04 895.483 680.802 883.834C689.948 842.354 691.082 787.967 722.123 755.639C752.281 724.01 801.849 722.534 838.826 729.746C840.859 730.158 843.278 730.37 845.199 731.083C919.968 747.522 991.026 797.523 1061.98 816.658C1111.3 830.162 1139.34 736.088 1170.3 717.433C1213.3 691.595 1275.32 696.11 1328.32 690.428C1358.81 687.354 1389.1 681.464 1419.42 677.987C1473.86 671.809 1516.62 707.199 1568.48 707.946" stroke="black" stroke-width="0.5" stroke-miterlimit="10"/>
<path d="M-238.733 760.163C-210.642 753.459 -183.091 744.841 -154.786 739.244C-123.728 732.956 -92.3434 727.473 -61.4864 727.618C-43.7202 727.702 -26.7773 727.48 -8.64438 730.783C37.6231 739.044 89.377 740.092 134.59 720.901C147.934 715.233 161.928 711.176 174.164 706.81C211.867 692.711 252.439 686.87 289.774 699.01C331.063 712.274 364.285 741.386 391.939 772.885C431.56 818.415 465.189 882.617 507.806 923.436C527.61 942.431 563.232 975.174 593.213 965.06C621.374 955.641 652.561 936.384 663.376 901.346C665.955 892.712 668.442 880.96 671.366 869.714C681.61 828.641 685.641 777.385 719.58 748.187C752.523 719.99 802.905 720.528 840.045 728.143C842.078 728.555 844.385 729.069 846.418 729.48C918.321 746.911 989.287 793.795 1058.16 811.814C1084.03 818.672 1097.37 803.755 1112.71 785.126C1136.03 756.783 1139.09 730.858 1171.48 713.416C1216.06 689.195 1276.71 693.201 1329.77 686.513C1359.55 682.833 1389.01 676.638 1418.52 672.856C1473.29 665.774 1515.27 701.563 1566.91 704.621" stroke="black" stroke-width="0.5" stroke-miterlimit="10"/>
<path d="M-239.019 752.521C-239.019 752.521 -214.71 743.385 -157.115 732.899C-126.941 727.31 -94.794 723.138 -64.0292 720.166C-45.9789 718.643 -27.6444 715.512 -10.0603 718.611C35.6583 726.668 85.2166 726.902 130.908 710.628C143.805 706.165 156.641 702.706 167.83 698.637C203.765 685.937 241.867 679.179 278.114 689.202C319.524 700.457 353.65 725.451 382.858 754.443C425.191 796.87 461.147 858.167 503.317 900.19C521.587 918.273 556.478 953.827 584.09 944.205C610.27 935.079 641.549 918.938 652.964 884.809C655.706 876.577 658.467 864.928 661.554 854.084C690.443 755.188 741.237 702.442 841.712 725.336C843.744 725.748 846.052 726.261 848.084 726.673C917.233 744.794 987.771 789.464 1054.95 806.169C1080.93 812.726 1093.94 797.002 1109.56 778.476C1134.2 749.938 1139.35 725.129 1173.49 707.997C1219 685.489 1278.88 688.184 1331.23 680.89C1360.19 676.904 1389.44 669.602 1418.01 665.815C1472.23 658.53 1514.49 694.421 1565.89 699.79" stroke="black" stroke-width="0.5" stroke-miterlimit="10"/>
<path d="M-239.194 744.577C-239.194 744.577 -216.146 734.632 -159.607 726.151C-128.833 721.47 -97.5094 716.993 -66.5625 711.006C-47.7301 707.374 -28.8273 701.029 -11.5177 704.026C32.4425 711.773 80.4367 716.222 125.235 702.357C137.247 698.593 149.473 695.936 160.165 692.367C194.444 680.765 230.187 672.79 265.346 680.697C306.217 690.039 340.911 711.818 370.85 737.999C415.185 776.715 453.863 833.199 494.652 876.422C511.548 893.996 543.625 931.246 571.949 922.23C605.893 911.532 624.103 901.161 641.668 868.971C645.447 862.152 647.771 849.998 651.407 839.357C685.012 742.897 747.467 699.959 842.88 723.029C844.913 723.441 847.22 723.955 849.141 724.667C915.922 743.28 985.423 786.538 1051.29 801.728C1077.77 807.785 1089.91 791.052 1106.24 773.132C1131.92 744.297 1139.43 720.706 1175.33 703.883C1221.32 682.584 1280.17 683.867 1332.47 675.869C1360.61 671.578 1389.09 662.965 1417.55 659.479C1471.93 652.597 1513.87 687.682 1564.81 695.965" stroke="black" stroke-width="0.5" stroke-miterlimit="10"/>
<path d="M-239.481 736.935C-239.481 736.935 -217.53 726.582 -161.713 719.204C-130.887 715.227 -98.3448 709.147 -68.4763 699.334C-48.9129 692.891 -30.7315 687.648 -13.5336 690.946C30.4776 699.398 73.2283 707.039 119.114 695.291C130.792 692.43 142.632 689.972 152.388 686.399C186.89 674.195 219.047 668.314 252.578 672.192C290.286 676.592 327.014 698.783 357.298 722.352C402.587 757.653 442.555 809.821 483.404 852.039C499.701 868.705 531.554 906.557 558.496 898.741C582.958 891.718 617.39 882.228 630.209 852.73C633.551 845.406 637.186 834.766 641.534 824.733C680.781 732.421 754.083 697.275 844.271 720.12C846.304 720.532 848.612 721.046 850.533 721.758C914.945 740.863 983.074 783.611 1048.01 797.088C1074.88 802.945 1086.42 785.305 1103.13 767.186C1130.14 738.156 1139.84 715.379 1177.12 699.066C1223.44 678.573 1281.41 678.846 1332.73 670.14C1360.15 665.242 1388.31 655.823 1416.27 652.838C1470.98 646.761 1512.47 681.341 1562.8 692.135" stroke="black" stroke-width="0.5" stroke-miterlimit="10"/>
<path d="M-239.768 729.292C-239.768 729.292 -218.417 718.032 -163.707 711.955C-131.123 708.288 -100.482 698.077 -69.4456 685.957C-49.9842 678.106 -32.9807 676.879 -16.0062 680.78C26.5113 690.732 68.0428 699.976 112.598 690.132C123.777 687.772 134.957 685.412 144.327 682.037C177.396 670.329 208.078 662.531 240.41 664.594C276.37 666.975 313.381 687.559 343.187 708.209C388.881 739.893 429.315 787.438 470.174 827.947C486.146 843.807 517.725 881.558 544.331 874.645C569.231 868.127 603.898 865.575 619.685 836.493C623.464 829.674 627.537 819.539 632.484 810.413C678.797 723.463 758.777 693.879 846.161 716.71C848.194 717.122 850.501 717.636 852.148 718.247C914.853 737.745 980.837 780.383 1045.01 792.549C1072.38 797.906 1083.43 779.057 1100.58 761.442C1128.64 732.116 1141.08 710.358 1179.18 694.35C1225.44 674.862 1282.81 674.227 1332.65 663.604C1359.36 658.099 1387.75 648.078 1415.32 645.292C1470.19 639.619 1511.8 673.898 1561.39 687.503" stroke="black" stroke-width="0.5" stroke-miterlimit="10"/>
<path d="M-239.942 721.35C-239.942 721.35 -219.029 709.584 -165.529 703.402C-133.219 699.633 -100.618 683.298 -71.2382 672.276C-53.8193 665.723 -36.6117 667.312 -19.8607 671.814C21.2749 682.967 61.5871 693.814 105.309 685.373C116.102 683.212 126.896 681.051 136.154 677.978C167.791 666.766 198.482 657.259 229.288 656.7C263.835 656.159 299.525 676.938 329.29 695.175C375.278 723.543 414.796 767.665 455.288 804.955C472.307 820.518 503.732 856.157 529.171 851.551C554.335 846.844 589.411 849.924 608.602 821.763C612.819 815.449 617.491 806.221 623.536 797.503C676.021 718.323 763.797 691.289 847.827 713.904C849.86 714.316 851.781 715.029 853.814 715.44C917.677 734.341 977.381 778.759 1042.67 789.623C1070.64 794.179 1080.98 774.723 1098.63 756.608C1127.62 727.286 1143.3 706.046 1181.29 690.339C1227.33 671.453 1283.55 669.707 1332.08 657.569C1358.19 651.157 1387.12 641.34 1414.31 638.753C1469.23 633.784 1511.23 667.864 1559.98 684.582" stroke="black" stroke-width="0.5" stroke-miterlimit="10"/>
<path d="M-240.117 713.405C-240.117 713.405 -219.753 701.437 -167.015 693.943C-135.031 689.368 -103.285 668.606 -73.4265 660.502C-56.4035 655.857 -40.0289 658.849 -23.5014 663.954C16.8012 676.51 55.7315 688.558 98.8439 680.918C109.251 678.957 120.044 676.796 128.754 673.519C159.567 662.001 189.445 650.479 220.21 647.507C252.956 644.243 289.247 665.93 317.211 681.444C361.898 706.588 401.273 746.889 440.9 781.46C458.305 796.824 489.354 830.953 514.844 827.052C541.654 822.955 575.594 832.465 598.627 805.729C603.555 800.022 608.828 791.702 615.585 783.59C674.068 713.487 768.004 686.683 850.001 708.887C852.034 709.298 853.955 710.011 855.988 710.423C918.804 729.62 975.581 776.035 1040.76 785.491C1068.02 789.44 1080.18 769.289 1097.29 750.971C1125.9 720.139 1146.25 700.63 1184.13 685.224C1229.66 666.839 1283.64 663.574 1331.8 649.926C1357.97 642.509 1386.95 633.396 1414.3 631.212C1469 626.845 1512.04 660.628 1559.67 680.357" stroke="black" stroke-width="0.5" stroke-miterlimit="10"/>
<path d="M-240.181 705.161C-240.181 705.161 -220.812 694.193 -168.441 683.481C-136.061 676.998 -108.432 654.707 -76.4479 650.132C-59.6581 647.798 -44.0559 651.19 -28.0262 656.795C11.1688 670.653 49.5405 684.205 91.8806 676.965C102.176 675.304 112.695 673.041 121.516 669.463C152.004 657.14 181.841 643.205 212.564 637.82C244.223 632.439 279.913 653.218 306.119 668.422C348.061 692.548 387.079 727.921 425.73 760.075C443.907 775.04 475.129 807.863 499.846 804.36C528.913 800.073 560.059 817.11 588.368 791.304C594.008 786.203 599.88 778.791 607.511 771.688C671.882 710.964 769.68 682.167 850.63 704.667C852.663 705.079 854.584 705.792 856.23 706.403C914.748 727.088 971.232 776.819 1037.37 782.862C1066.67 785.513 1076.14 765.047 1094.9 745.631C1124.61 715.207 1147.1 695.808 1184.76 681.005C1229.8 663.12 1281.37 657.933 1329.03 643.077C1355.53 634.756 1384.57 626.347 1411.81 624.464C1466.56 620.801 1510.65 654.288 1556.78 677.227" stroke="black" stroke-width="0.5" stroke-miterlimit="10"/>
<path d="M-240.132 696.616C-240.132 696.616 -218.954 686.662 -169.308 671.513C-141.208 663.099 -109.899 641.832 -79.3069 640.166C-62.6895 639.138 -47.6968 643.331 -32.2768 649.738C5.81079 664.897 43.6239 679.955 85.964 672.715C95.9849 670.952 106.504 668.689 115.548 664.509C146.981 650.481 176.288 632.924 208.007 626.538C239.066 620.25 272.733 638.908 298.828 654.413C338.025 677.521 375.63 709.971 412.593 739.101C431.43 753.969 461.564 784.675 486.718 781.677C517.706 778.103 547.949 799.258 579.705 776.786C586.056 772.292 592.803 765.889 601.42 759.495C672.501 708.454 770.155 675.836 852.315 698.442C854.348 698.854 856.269 699.567 857.916 700.178C915.661 721.261 969.483 774.801 1036.02 778.935C1065.38 780.581 1075.18 759.212 1094.49 739.999C1124.75 709.779 1149.66 690.592 1187.54 675.187C1231.92 657.399 1282.9 649.596 1328.53 634.328C1354.6 625.503 1385.95 615.898 1411.74 616.22C1465.48 616.976 1508.5 644.928 1556.2 672.901" stroke="black" stroke-width="0.5" stroke-miterlimit="10"/>
<path d="M-240.246 687.667C-240.246 687.667 -218.956 677.411 -170.003 658.238C-144.809 648.403 -111.427 629.96 -82.6631 630.699C-66.2181 630.977 -51.7234 635.67 -36.4151 642.378C0.951162 658.64 38.3684 675.607 80.5457 667.963C90.9528 666.001 101.197 663.637 110.354 659.155C142.731 643.423 173.267 622.554 206.266 613.56C237.832 605.062 269.141 622.502 295.175 639.013C331.405 661.704 366.102 692.734 401.154 719.441C420.377 734.11 449.26 762.297 475.014 760.206C508.198 757.447 537.324 781.613 571.916 763.276C578.867 759.69 586.6 753.995 596.366 748.713C673.223 707.35 769.199 669.999 853.177 691.91C854.936 692.22 856.857 692.933 858.504 693.544C920.437 713.441 964.482 773.972 1034.05 775.808C1062.54 776.445 1075.26 754.788 1093.58 734.867C1122.8 703.234 1152.33 685.075 1189.44 670.068C1232.88 652.276 1282.4 640.846 1327.53 626.078C1353.49 617.554 1385.23 607.75 1411.18 608.476C1464.86 610.236 1509.04 637.59 1555.12 669.075" stroke="black" stroke-width="0.5" stroke-miterlimit="10"/>
<path d="M-240.086 678.82C-240.086 678.82 -219.651 664.137 -170.474 644.361C-145.942 634.624 -113.239 619.697 -86.1319 621.534C-70.2965 622.614 -55.5273 627.409 -40.4424 634.719C-3.79748 652.083 33.4983 671.06 75.6247 662.712C86.0318 660.751 96.4996 657.784 106.154 652.802C139.09 635.564 170.316 609.47 206.934 602.504C240.523 596.127 269.34 606.819 294.937 622.825C327.547 643.489 358.657 676.613 391.849 701.602C411.621 716.475 438.592 742.239 464.947 741.057C500.326 739.112 528.172 765.886 565.326 751.583C572.989 748.603 581.485 744.219 592.511 739.747C670.915 706.837 769.725 664.372 853.379 685.477C855.137 685.787 856.784 686.398 858.705 687.111C920.912 707.11 961.677 773.96 1032.03 773.688C1060.74 773.722 1073.63 750.759 1092.61 730.741C1122.27 699.612 1153.62 680.758 1190.84 665.45C1233.35 647.654 1281.12 632.496 1325.76 618.228C1352.26 609.908 1383.73 600.002 1409.74 601.431C1463.46 603.896 1509.35 630.856 1553.32 666.353" stroke="black" stroke-width="0.5" stroke-miterlimit="10"/>
<path d="M-239.977 669.27C-239.977 669.27 -218.74 649.061 -171.057 630.786C-147.297 621.447 -115.213 609.03 -88.9904 611.567C-73.3785 613.249 -58.4976 617.743 -43.5244 625.354C-7.21464 643.622 30.2342 664.711 72.584 655.761C83.1028 653.498 93.9568 650.332 104.109 644.85C138.213 625.305 170.151 599.817 209.076 593.365C241.944 588.091 271.492 595.971 297.759 610.171C329.454 627.412 357.759 660.522 387.271 684.489C405.285 699.052 433.363 723.514 458.671 722.628C495.86 721.697 522.649 750.477 561.431 740.204C569.693 738.131 579.836 734.359 591.685 730.192C670.274 703.517 772.183 657.748 854.088 676.834C855.846 677.144 857.493 677.755 859.14 678.366C921.621 698.467 959.318 772.742 1031.11 770.265C1059.89 769.295 1073.23 745.127 1092.76 725.312C1122.96 694.388 1155.63 675.338 1192.8 659.326C1234.1 641.424 1280.91 622.139 1324.71 609.275C1351.65 601.46 1383.12 591.554 1409.01 593.284C1462.4 596.652 1510.16 623.621 1552.35 662.226" stroke="black" stroke-width="0.5" stroke-miterlimit="10"/>
<path d="M-239.645 659.117C-239.645 659.117 -220.412 633.368 -172.027 617.409C-144.638 608.389 -119.496 597.85 -91.9003 600.896C-76.0139 602.68 -61.4075 607.072 -46.4343 614.683C-10.0735 633.655 27.3656 656.453 69.9388 646.901C80.8438 644.439 92.3585 641.175 102.683 634.387C135.75 613.429 171.144 589.567 210.445 584.624C243.141 580.656 275.23 586.739 300.734 599.628C330.131 614.646 357.856 643.431 385.609 667.088C408.655 686.6 430.879 705.808 454.316 704.913C491.342 703.579 522.644 731.978 558.744 728.931C567.109 728.266 578.41 723.896 591.245 720.437C669.256 698.686 773.604 649.711 853.648 667.08C855.406 667.39 857.053 668.001 858.537 668.209C921.517 687.809 956.797 771.122 1029.92 766.74C1058.65 765.066 1072.82 739.495 1092.35 719.68C1122.83 688.857 1156.93 669.312 1194.05 652.596C1234.52 634.388 1280.69 611.783 1323.34 599.516C1350.28 591.701 1382.18 582.3 1408.24 584.433C1461.68 588.505 1511.58 615.584 1550.95 657.594" stroke="black" stroke-width="0.5" stroke-miterlimit="10"/>
<path d="M-239.311 648.963C-239.311 648.963 -219.785 619.898 -172.944 604.736C-146.328 596.115 -121.907 586.678 -94.4744 589.321C-78.4763 590.804 -63.6464 594.594 -48.7849 602.506C-12.4241 621.478 26.1031 646.392 68.788 636.539C80.0792 633.878 91.6545 629.609 102.365 622.622C136.154 600.561 172.9 580.626 212.355 577.796C245.427 575.338 278.837 581.226 305.225 593.415C333.534 606.317 361.888 630.881 387.506 652.719C408.855 670.916 427.998 690.009 453.906 690.03C491.583 690.308 521.665 720.31 558.031 719.074C566.558 718.812 578.57 715.048 591.843 712.095C668.951 694.461 774.192 643.078 852.385 657.019C853.869 657.227 855.628 657.537 857.275 658.148C921.636 676.548 953.718 771.006 1028.51 763.817C1057.02 761.036 1072.19 734.464 1091.99 714.751C1123.02 684.132 1157.62 664.086 1194.69 646.666C1234.45 627.852 1279.37 602.727 1321.63 590.66C1348.46 583.145 1380.91 573.948 1406.86 576.383C1459.96 581.358 1512.17 608.951 1549.1 654.167" stroke="black" stroke-width="0.5" stroke-miterlimit="10"/>
<path d="M-238.868 638.509C-238.868 638.509 -219.494 607.333 -174.361 592.565C-148.791 584.24 -124.594 575.406 -96.5515 577.247C-80.33 578.127 -65.2767 581.315 -50.3034 588.926C-14.1054 607.495 25.3472 634.123 67.8694 623.867C79.1605 621.206 90.6242 617.238 101.111 610.853C136.049 589.904 173.883 572.086 213.877 571.168C247.6 570.321 281.884 577.219 310.254 589.116C337.801 600.707 366.509 620.95 391.314 640.773C411.737 657.257 428.573 675.836 456.402 676.57C493.855 677.45 523.379 708.957 558.912 709.125C567.876 709.368 580.438 705.808 593.873 703.257C644.588 693.643 695.656 679.707 746.39 666.675C779.552 658.084 818.047 640.168 851.569 645.755C853.053 645.963 854.811 646.273 856.458 646.884C921.754 665.289 951.471 769.487 1027.59 760.395C1055.78 756.808 1072.16 728.633 1092.24 709.022C1123.55 678.505 1158.76 657.658 1195.77 639.534C1235.1 620.214 1278.77 592.57 1320.64 580.702C1347.47 573.188 1380.24 564.796 1406.35 567.634C1459.51 573.313 1514.03 601.419 1548.24 649.739" stroke="black" stroke-width="0.5" stroke-miterlimit="10"/>
<path d="M-238.199 627.453C-238.199 627.453 -219.202 594.766 -175.279 579.892C-150.644 571.563 -126.447 562.728 -97.8458 563.064C-81.4009 563.343 -65.3518 565.53 -50.704 572.335C-14.8824 589.394 24.4487 618.032 66.575 609.685C78.0289 607.426 89.1574 604.362 100.082 598.481C136.056 578.945 175.924 561.538 215.349 563.835C250.872 565.712 283.784 572.1 315.722 585.321C342.72 596.708 371.833 613.334 396.759 631.146C416.755 645.417 432.107 663.787 460.596 664.424C496.18 665.295 527.127 698.016 560.78 699.884C569.632 700.428 582.631 697.372 596.504 695.326C647.483 687.523 699.426 674.597 749.783 660.055C781.299 650.853 817.831 629.811 850.255 634.991C851.739 635.199 853.497 635.509 855.144 636.12C921.213 654.126 949.276 768.672 1026.29 757.171C1054.04 753.079 1071.64 723.302 1092 703.792C1123.74 673.78 1159.01 651.928 1196.08 632.799C1235.09 612.673 1277.01 583.01 1319.04 571.545C1345.87 564.031 1379.36 556.246 1405.24 559.685C1458.34 566.37 1515.05 595.291 1546.94 646.515" stroke="black" stroke-width="0.5" stroke-miterlimit="10"/>
<path d="M-237.532 616.397C-237.532 616.397 -219.409 582.7 -176.197 567.22C-152 558.386 -127.965 549.148 -98.6938 547.678C-81.8019 546.752 -65.4687 547.331 -51.2071 554.336C-15.7717 571.595 22.452 601.534 64.6196 595.6C76.1245 594.045 87.4157 591.384 98.3911 586.208C137.333 567.087 175.353 555.503 216.384 555.998C251.144 556.564 288.711 566.393 320.64 581.322C347.851 593.817 377.147 607.427 402.743 623.433C422.861 635.693 436.79 652.85 465.939 653.39C499.49 653.849 531.698 687.38 563.419 690.244C572.435 691.192 585.596 688.539 599.632 686.896C650.601 680.802 703.307 669.186 752.576 652.528C783.329 642.015 816.243 618.945 848.778 623.824C850.262 624.032 852.021 624.342 853.779 624.652C921.444 642.565 947.862 765.75 1024.83 753.545C1052.03 749.25 1071.24 717.67 1091.75 698.563C1123.77 668.653 1159.1 645.795 1195.85 625.86C1234.53 604.929 1274.86 573.65 1317.44 562.389C1344.43 555.277 1378.08 547.895 1403.86 551.636C1456.9 559.326 1515.8 589.061 1545.2 642.787" stroke="black" stroke-width="0.5" stroke-miterlimit="10"/>
<path d="M-236.976 605.642C-236.976 605.642 -219.453 571.038 -177.003 554.247C-153.243 544.908 -129.148 534.666 -98.5968 530.587C-81.1464 528.155 -65.4737 528.833 -51.7611 535.633C-16.7118 553.091 20.6788 584.435 62.5016 581.113C74.0575 580.262 85.6741 578.407 96.5378 573.531C136.792 555.925 175.573 545.652 217.204 547.054C253.611 548.231 292.379 559.875 325.73 576.018C353.43 589.721 382.126 602.424 409.877 616.831C430.39 627.183 443.444 643.331 473.204 643.069C505.107 642.918 538.301 677.157 567.929 680.614C576.945 681.561 590.157 679.613 604.467 678.072C654.604 673.381 708.072 663.076 756.09 643.898C786.467 631.876 815.264 607.279 848.297 611.657C849.781 611.865 851.539 612.175 853.298 612.485C921.847 629.698 948.207 763.138 1024.36 748.919C1050.84 744.016 1071.33 711.538 1092.34 691.931C1124.36 662.02 1159.64 638.459 1196.17 617.417C1234.75 595.078 1273.54 562.886 1316.4 551.727C1343.39 544.615 1377.37 538.039 1403.31 542.183C1456.4 550.577 1517.39 581.428 1544.18 637.957" stroke="black" stroke-width="0.5" stroke-miterlimit="10"/>
<path d="M-236.531 595.187C-236.531 595.187 -219.496 559.375 -177.972 540.87C-154.812 530.623 -128.939 517.273 -98.7132 512.388C-81.4255 509.554 -66.4135 510.328 -53.2497 516.925C-18.5866 534.582 17.92 566.626 59.3979 565.916C71.0048 565.77 82.6725 564.618 93.9733 560.247C135.152 544.355 174.92 534.79 216.989 536.697C254.768 538.383 295.182 550.638 329.073 568.694C357.423 584.009 386.109 598.421 416.014 611.23C436.812 619.974 450.039 634.816 479.747 633.849C510.116 632.786 543.645 666.122 572.44 670.983C581.232 672.533 594.993 670.788 609.192 669.547C657.62 665.251 711.791 657.262 758.945 635.365C789.056 621.532 813.676 596.412 847.319 599.989C848.803 600.197 850.561 600.507 852.045 600.715C921.641 617.632 949.813 761.336 1023.07 743.986C1048.79 737.773 1070.37 705.702 1092.16 685.696C1124.45 655.887 1159.29 631.821 1195.61 609.672C1234.08 585.925 1271.51 553.225 1315.03 541.968C1342.18 535.259 1374.66 530.184 1402.42 533.632C1456.18 540.22 1520.92 578.629 1542.83 634.029" stroke="black" stroke-width="0.5" stroke-miterlimit="10"/>
<path d="M-236.087 584.733C-236.087 584.733 -218.829 548.318 -178.556 527.294C-153.841 514.541 -125.813 499.592 -98.8302 494.19C-82.2541 490.749 -67.6282 491.723 -54.4644 498.32C-18.978 516.282 14.7744 549.016 56.1819 551.021C67.8398 551.579 79.9446 550.932 91.2965 547.265C133.126 532.984 174.104 523.526 216.447 525.535C255.71 527.429 297.831 539.29 331.875 559.457C360.765 576.685 390.417 595.224 422.365 606.735C443.609 614.275 457.172 628.213 487.327 626.043C516.709 624.271 550.462 657.005 578.047 661.76C586.84 663.309 600.266 662.468 614.464 661.227C661.897 657.932 715.458 650.744 760.7 626.425C789.998 610.577 811.812 585.445 846.339 588.322C847.823 588.53 849.582 588.84 851.066 589.048C921.434 605.566 949.943 757.616 1021.5 738.951C1047.06 732.335 1069.58 700.269 1091.7 679.36C1123.99 649.551 1158.56 625.383 1194.34 601.321C1232.44 576.064 1269.7 542.961 1313.27 532.408C1340.42 525.699 1373.61 521.231 1401.15 525.282C1455.12 532.976 1521.56 572.7 1541.09 630.301" stroke="black" stroke-width="0.5" stroke-miterlimit="10"/>
<path d="M-235.917 574.177C-235.917 574.177 -219.147 536.554 -179.078 512.713C-154.739 498.451 -126.591 481.491 -99.3839 475.486C-83.0823 471.944 -68.6192 472.515 -56.0043 478.908C-20.5179 496.871 11.6899 530.402 52.5898 534.616C64.2987 535.877 76.729 536.037 87.9692 532.671C130.45 520.002 172.363 510.547 215.315 511.755C255.462 512.95 299.291 524.416 333.437 545.992C363.801 565.137 392.764 588.901 427.568 601.129C449.91 609.077 464.254 620.907 494.358 618.033C523.141 615.353 556.842 647.383 583.879 651.934C592.671 653.484 605.985 652.943 619.686 652.203C666.235 649.607 718.088 642.814 761.307 616.374C789.954 598.914 809.899 573.773 844.537 576.349C846.021 576.557 847.891 576.566 849.264 577.075C919.581 592.889 945.033 750.656 1019.01 732.203C1045.5 725.592 1068.13 693.224 1090.41 672.718C1122.71 642.909 1158 617.639 1192.52 592.767C1228.97 566.899 1267.72 532.294 1311.34 522.446C1338.66 516.14 1372.02 512.074 1399.44 516.426C1453.62 525.227 1521.87 565.965 1539.03 625.767" stroke="black" stroke-width="0.5" stroke-miterlimit="10"/>
<path d="M-235.473 563.724C-235.473 563.724 -218.916 524.993 -179.214 497.934C-155.801 481.958 -126.982 463.192 -99.6635 456.886C-83.6363 453.241 -69.4476 453.71 -57.1072 460.002C-21.8952 477.863 9.04228 512.292 49.1602 518.614C61.1946 520.682 73.7876 521.244 85.1905 518.281C128.048 507.122 170.844 496.968 214.244 496.971C256.982 497.072 299.662 507.427 333.808 529.003C364.996 548.454 394.784 581.772 432.109 595.621C455.986 604.481 471.052 615.209 501.328 611.028C529.897 607.242 563.659 638.267 590.31 643.017C598.828 644.465 611.868 643.822 626.005 643.587C672.382 642.297 721.328 634.082 762.189 606.425C790.073 587.655 809.631 562.713 844.382 564.988C845.866 565.196 847.736 565.205 849.108 565.714C921.681 581.337 942.764 743.306 1018.05 726.368C1045.26 720.363 1068.49 687.194 1090.89 666.387C1122.91 636.476 1157.87 610.4 1191.41 584.819C1226.82 557.539 1266.62 522.638 1310.4 513.192C1337.89 507.289 1372.79 502.426 1398.99 508.381C1452.88 520.498 1522.42 556.92 1538.22 622.044" stroke="black" stroke-width="0.5" stroke-miterlimit="10"/>
<path d="M-235.028 553.27C-222.26 523.067 -202.233 502.752 -179.238 482.853C-157.737 464.454 -127.596 445.494 -100.329 438.484C-84.4646 434.436 -70.2759 434.905 -58.2099 441.095C-23.1607 458.553 6.55762 494.586 45.4563 502.511C57.1045 504.777 70.2975 506.247 81.8631 503.687C124.822 493.936 168.117 483.282 212.521 480.575C257.587 477.771 300.286 484.708 334.26 507.59C366.261 529.056 395.778 571.522 435.116 589.201C460.518 600.682 476.803 609.807 507.303 605.024C544.521 598.966 560.274 633.927 596.406 635.002C605.371 635.246 618.075 635.507 631.827 635.471C678.255 634.885 721.651 625.639 761.475 596.569C788.485 576.789 809.253 551.953 843.566 553.723C845.161 553.63 846.92 553.94 848.404 554.148C922.959 569.48 939.896 735.048 1016.5 719.624C1044.14 714.124 1067.87 680.455 1090.77 659.147C1122.4 629.436 1156.65 602.753 1189.7 575.964C1225.01 547.275 1265.36 512.578 1309.3 503.535C1336.95 498.035 1372.01 493.575 1398.38 499.933C1452.59 512.856 1523.56 550.491 1537.14 618.218" stroke="black" stroke-width="0.5" stroke-miterlimit="10"/>
<path d="M-234.584 542.815C-222.304 511.404 -201.932 488.477 -178.928 466.868C-158.301 447.461 -127.988 427.194 -100.883 419.781C-85.293 415.632 -71.1044 416.101 -59.2011 421.887C-24.1519 439.345 3.85906 475.772 41.9757 485.805C53.4005 488.673 66.7561 490.546 78.5962 488.088C122.43 479.347 167.106 467.492 212.191 461.27C258.983 454.654 302.525 458.478 336.163 482.263C369.09 505.442 396.627 557.45 436.435 579.757C463.576 594.965 481.68 603.395 511.966 597.506C549.631 590.243 565.77 625.005 602.014 625.779C610.978 626.022 623.134 626.08 636.997 625.743C683.262 624.754 721.709 615.384 760.161 585.805C786.845 565.219 808.273 540.286 842.424 541.653C844.02 541.56 845.778 541.87 847.262 542.078C923.687 557.418 936.702 725.985 1014.61 712.075C1042.69 707.08 1067.31 672.71 1089.93 651.301C1121.29 621.488 1154.56 594.097 1187.28 566.502C1222.37 536.706 1263.38 501.911 1307.77 493.373C1335.68 487.975 1370.8 484.219 1397.33 490.98C1452.26 504.51 1524.15 543.858 1535.85 613.285" stroke="black" stroke-width="0.5" stroke-miterlimit="10"/>
<path d="M-234.139 532.361C-221.962 499.542 -201.631 474.201 -178.342 450.985C-158.427 430.971 -128.216 409.296 -101 401.582C-85.2979 397.132 -71.3837 397.499 -59.4804 403.286C-24.5939 420.341 2.14676 457.667 39.5931 469.506C50.7944 472.977 64.1501 474.849 76.1529 472.794C121.247 464.863 168.139 450.405 213.852 439.963C261.161 429.428 303.89 431.238 339.51 454.731C377.102 479.641 397.953 537.047 436.34 567.389C456.601 583.471 489.483 594.987 515.969 590.084C555.229 582.729 573.127 617.801 607.947 617.361C616.749 617.202 628.793 617.56 642.656 617.223C688.098 615.929 722.754 605.837 759.558 575.647C785.643 554.154 807.62 529.424 841.882 530.491C843.478 530.397 845.236 530.707 846.72 530.915C924.853 545.862 934.22 717.528 1013.44 705.132C1067.45 696.74 1138.85 598.547 1185.57 557.646C1220.72 526.845 1262.01 492.152 1306.83 484.119C1334.91 479.124 1370.08 476.072 1396.88 482.934C1452.41 497.372 1525.45 537.831 1535.05 609.562" stroke="black" stroke-width="0.5" stroke-miterlimit="10"/>
<path d="M-233.695 521.908C-222.128 489.89 -201.595 458.115 -178.255 435.604C-157.679 415.492 -128.831 391.599 -101.391 383.283C-85.5778 378.531 -71.7753 379.199 -60.0348 384.583C-25.0365 401.337 0.545662 439.261 36.9355 453.105C47.9134 457.179 61.1573 459.352 73.2718 456.997C120.785 449.278 170.297 428.598 216.407 416.248C258.715 404.885 306.838 396.365 343.252 425.291C383.611 457.05 400.651 517.153 435.776 550.396C457.003 570.604 484.074 588.527 517.887 581.548C557.757 573.391 577.189 609.375 612.671 608.838C621.198 608.577 633.354 608.634 646.943 608.195C691.784 605.994 723.035 594.981 758.244 564.884C783.891 542.886 806.641 517.757 840.629 518.722C842.224 518.629 843.983 518.939 845.467 519.147C925.307 533.699 931.249 707.862 1011.51 696.879C1065.84 689.293 1136.71 589.187 1183.09 547.48C1218.2 515.975 1259.87 481.083 1305.4 473.656C1333.65 469.064 1369.25 466.517 1395.67 473.579C1451.8 488.924 1525.98 530.495 1533.32 604.125" stroke="black" stroke-width="0.5" stroke-miterlimit="10"/>
<path d="M-233.139 511.152C-222.059 477.925 -201.131 444.242 -178.168 420.221C-158.303 399.503 -129.333 373.599 -101.619 365.385C-85.8058 360.633 -71.6172 361.102 -60.1511 366.384C-25.0411 382.837 -0.617401 421.358 34.716 437.209C45.7449 441.986 58.4399 443.956 70.7171 442.003C120.761 434.196 171.847 407.592 219.734 392.133C261.615 378.557 310.581 366.924 347.381 395.65C389.549 428.424 404.212 490.727 435.832 530.891C454.946 555.11 481.755 580.472 517.885 572.297C558.09 563.237 579.709 601.745 616.623 600.713C625.15 600.451 637.031 600.406 650.183 599.463C694.039 596.553 722.656 584.221 756.707 554.722C782.466 532.422 804.941 507.192 839.152 507.554C840.748 507.461 842.506 507.771 843.99 507.979C922.57 521.721 928.371 701.313 1009.35 689.227C1066.28 680.547 1134.17 580.025 1180.45 538.62C1215.56 507.115 1257.73 471.722 1303.42 464.698C1331.83 460.509 1367.59 458.365 1394.17 465.83C1451.01 481.781 1525.96 524.663 1531.42 599.993" stroke="black" stroke-width="0.5" stroke-miterlimit="10"/>
<path d="M-232.695 500.698C-221.717 466.063 -201.277 431.171 -178.081 404.839C-158.704 382.912 -129.4 356.105 -101.574 347.589C-85.6484 342.537 -71.1853 343.108 -59.7192 348.39C-24.4975 364.541 -0.683472 403.864 33.7051 421.419C44.5106 426.799 56.9822 429.371 69.5339 427.52C121.285 419.318 175.327 385.59 224.219 367.422C265.45 352.233 314.872 337.687 352.058 366.214C395.324 399.395 409.479 463.908 437.056 509.079C453.243 535.296 478.733 570.102 516.347 562.136C557.762 553.181 581.729 594.616 620.351 593.19C628.878 592.928 640.485 592.782 653.362 591.736C695.571 588.215 723.263 574.169 756.043 545.569C781.528 523.168 804.227 497.336 838.438 497.698C840.034 497.605 841.792 497.915 843.276 498.123C923.451 511.772 926.163 692.958 1007.91 682.183C1065.59 674.813 1132.51 571.874 1178.63 530.065C1213.46 498.458 1256.68 462.769 1302.53 456.148C1331.1 452.362 1365.65 451.821 1393.77 458.488C1453.59 473.147 1527.51 522.157 1530.61 596.269" stroke="black" stroke-width="0.5" stroke-miterlimit="10"/>
<path d="M-232.027 489.642C-221.151 453.6 -201.2 417.499 -178.268 389.355C-159.38 366.22 -129.74 338.51 -101.528 329.795C-85.328 324.844 -70.8649 325.415 -59.0126 330.498C-22.8559 346.654 -0.0885895 386.273 33.3553 405.533C43.6629 411.413 56.0737 414.991 69.3467 412.037C123.923 400.43 177.384 362.376 229.04 341.808C270.057 325.512 318.94 309.053 356.461 336.677C400.499 369.459 415.529 434.981 438.736 484.355C452.974 514.986 474.033 555 514.443 548.756C557.494 542.122 581.94 586.474 622.655 584.454C631.183 584.193 642.627 583.643 655.229 582.496C728.538 575.1 770.023 486.016 837.236 486.634C838.831 486.541 840.59 486.851 842.074 487.059C923.956 500.313 923.365 681.986 1006.09 673.629C1063.21 667.765 1130.75 562.315 1176.2 520.604C1211.26 488.395 1254.75 452.807 1301.21 447.094C1330.05 443.41 1364.65 443.573 1392.83 450.944C1453.63 466.311 1527.88 516.127 1529.1 591.94" stroke="black" stroke-width="0.5" stroke-miterlimit="10"/>
<path d="M-231.745 478.785C-221.348 439.824 -201.081 406.239 -178.292 374.274C-160.218 349.124 -129.917 321.316 -101.044 312.504C-84.4585 307.354 -70.1071 308.226 -57.7569 312.808C-19.8831 326.861 2.27458 367.282 34.8854 387.946C44.9695 394.428 57.3804 398.005 70.7652 394.75C126.723 381.944 181.534 338.567 233.861 316.192C274.278 298.989 322.449 281.923 360.306 308.644C405.065 340.324 420.807 406.453 440.701 458.023C453.007 489.65 470.492 539.299 512.548 533.666C556.972 527.541 579.132 577.211 623.476 575.51C632.278 575.35 643.173 574.597 655.613 573.047C727.611 564.136 769.258 475.455 835.759 475.467C837.355 475.374 839.113 475.684 840.597 475.892C923.963 489.354 920.679 670.713 1003.83 664.569C1060.4 660.211 1128.72 552.653 1173.62 510.738C1208.9 477.927 1252.83 442.845 1299.34 437.836C1328.34 434.554 1362.99 435.421 1391.44 442.894C1453.23 458.97 1527.81 509.591 1527.15 587.104" stroke="black" stroke-width="0.5" stroke-miterlimit="10"/>
<path d="M-231.189 468.029C-221.006 427.962 -201.003 392.565 -178.703 359.392C-161.116 333.033 -129.932 304.525 -100.673 295.514C-83.7009 290.165 -69.2378 290.736 -56.278 294.517C-16.3009 306.267 6.0195 347.091 38.0717 369.26C48.0441 376.043 60.3433 379.922 74.1142 376.467C130.905 362.257 186.122 315.263 239.17 291.786C279.149 274.078 325.664 258.11 363.806 283.223C409.947 313.703 425.698 378.123 443.438 431.292C454.362 464.119 468.78 521.193 511.924 517.676C557.487 514.372 575.99 568.851 623.799 567.066C632.601 566.906 643.333 565.75 655.499 564.098C726.185 553.673 768.93 465.399 834.496 465.406C836.091 465.313 837.85 465.623 839.334 465.831C924.022 479.099 918.704 660.046 1001.73 655.913C1057.36 653.259 1126.85 543.394 1171.47 501.378C1206.98 467.964 1251.34 433.387 1298.17 429.183C1327.23 426.606 1362.32 427.977 1390.66 435.752C1453.05 452.735 1528.17 503.56 1526.02 582.574" stroke="black" stroke-width="0.5" stroke-miterlimit="10"/>
<path d="M-230.633 457.274C-220.664 416.1 -201.241 376.378 -178.839 344.612C-159.931 318.058 -133.473 288.825 -100.027 278.627C-83.1668 273.578 -67.4845 272.546 -53.9151 275.526C-12.7698 284.969 10.7091 325.195 41.5421 348.967C51.2911 356.353 63.702 359.93 77.8591 356.277C134.985 341.163 190.273 291.455 243.432 267.676C283.026 250.168 327.163 236.4 365.862 260.008C413.223 288.885 429.766 349.488 445.961 403.454C456.164 437.384 469.822 502.397 511.309 499.979C554.393 497.467 571.861 559.783 622.475 558.011C631.389 557.55 641.735 556.593 653.626 554.84C724.698 544.216 767.392 455.238 833.233 455.346C834.829 455.253 836.587 455.563 838.071 455.771C923.582 469.345 916.73 649.38 999.36 647.155C1053.88 645.803 1125.36 533.937 1168.94 492.217C1204.28 458.401 1249.36 424.429 1296.63 420.731C1326.12 418.658 1360.98 420.632 1389.6 428.508C1452.7 446.098 1527.98 497.326 1524.61 577.943" stroke="black" stroke-width="0.5" stroke-miterlimit="10"/>
<path d="M-229.965 446.218C-213.336 375.315 -168.386 286.147 -99.3811 261.739C-9.54248 229.989 14.0708 353.161 83.037 335.59C171.669 312.984 268.627 189.675 366.853 240.508C414.294 264.962 432.675 321.451 448.006 372.699C458.535 407.434 466.929 479.058 511.416 481.178C541.826 482.528 546.631 508.289 566.384 526.579C590.844 549.014 618.215 552.662 651.53 546.183C720.142 532.934 768.284 443.579 832.244 445.388C922.987 448.229 911.573 637.19 997.874 637.697C1044.63 637.917 1095.21 554.607 1128.9 520.18C1176.04 472.243 1231.86 415.198 1295.9 412.584C1381.79 409.168 1531.29 448.881 1523.76 573.515" stroke="black" stroke-width="0.5" stroke-miterlimit="10"/>
</g>
</svg>
